<svg width="277" height="88" viewBox="0 0 277 88" fill="none" xmlns="http://www.w3.org/2000/svg">
<g filter="url(#filter0_d_1_11108)">
<rect x="23" y="18" width="41.7571" height="41.7571" rx="20.8785" fill="#E3B873"/>
<rect x="19" y="14" width="49.7571" height="49.7571" rx="24.8785" stroke="white" stroke-width="8"/>
</g>
<path d="M38.1042 45.1323C37.1322 45.1323 36.2502 44.8743 35.4582 44.3583C34.6662 43.8423 34.0362 43.0923 33.5682 42.1083C33.1122 41.1123 32.8842 39.9303 32.8842 38.5623C32.8842 37.1943 33.1122 36.0183 33.5682 35.0343C34.0362 34.0383 34.6662 33.2823 35.4582 32.7663C36.2502 32.2503 37.1322 31.9923 38.1042 31.9923C39.0762 31.9923 39.9582 32.2503 40.7502 32.7663C41.5422 33.2823 42.1662 34.0383 42.6222 35.0343C43.0902 36.0183 43.3242 37.1943 43.3242 38.5623C43.3242 39.9303 43.0902 41.1123 42.6222 42.1083C42.1662 43.0923 41.5422 43.8423 40.7502 44.3583C39.9582 44.8743 39.0762 45.1323 38.1042 45.1323ZM38.1042 44.7723C39.4842 44.7723 40.1742 42.7023 40.1742 38.5623C40.1742 34.4223 39.4842 32.3523 38.1042 32.3523C36.7242 32.3523 36.0342 34.4223 36.0342 38.5623C36.0342 42.7023 36.7242 44.7723 38.1042 44.7723ZM48.3628 44.8623V44.5923L49.6228 44.2323V41.5323H44.4928L44.1328 40.9923L50.8828 32.0823H52.5928V40.7223H54.4828V41.5323H52.5928V44.2323L53.8528 44.5923V44.8623H48.3628ZM45.1228 40.7223H49.6228V34.7823L45.1228 40.7223Z" fill="white"/>
<path d="M83.726 33.126C82.1393 33.126 80.9307 32.678 80.1 31.782C79.2693 30.886 78.854 29.6493 78.854 28.072C78.854 27.0267 79.0407 26.126 79.414 25.37C79.7873 24.614 80.324 24.0307 81.024 23.62C81.724 23.2093 82.5687 23.004 83.558 23.004C84.258 23.004 84.902 23.1113 85.49 23.326C86.078 23.5313 86.5773 23.8347 86.988 24.236L86.54 25.16C86.092 24.768 85.63 24.4833 85.154 24.306C84.678 24.1287 84.1413 24.04 83.544 24.04C82.424 24.04 81.5653 24.3947 80.968 25.104C80.3707 25.804 80.072 26.7933 80.072 28.072C80.072 29.3787 80.38 30.3773 80.996 31.068C81.612 31.7587 82.5313 32.104 83.754 32.104C84.5473 32.104 85.308 31.9687 86.036 31.698V28.772H83.53V27.862H87.03V32.426C86.7687 32.566 86.4513 32.6873 86.078 32.79C85.714 32.8927 85.3267 32.972 84.916 33.028C84.5053 33.0933 84.1087 33.126 83.726 33.126ZM92.2882 33.126C91.2149 33.126 90.3655 32.8133 89.7402 32.188C89.1149 31.5533 88.8022 30.6947 88.8022 29.612C88.8022 28.912 88.9422 28.296 89.2222 27.764C89.5022 27.2227 89.8849 26.8073 90.3702 26.518C90.8649 26.2193 91.4342 26.07 92.0782 26.07C93.0022 26.07 93.7255 26.3687 94.2482 26.966C94.7709 27.554 95.0322 28.366 95.0322 29.402V29.836H89.9082C89.9455 30.6107 90.1695 31.2033 90.5802 31.614C90.9909 32.0153 91.5602 32.216 92.2882 32.216C92.6989 32.216 93.0909 32.1553 93.4642 32.034C93.8375 31.9033 94.1922 31.6933 94.5282 31.404L94.9202 32.202C94.6122 32.4913 94.2202 32.72 93.7442 32.888C93.2682 33.0467 92.7829 33.126 92.2882 33.126ZM92.1062 26.91C91.4622 26.91 90.9535 27.1107 90.5802 27.512C90.2069 27.9133 89.9875 28.4407 89.9222 29.094H94.0522C94.0242 28.4033 93.8422 27.8667 93.5062 27.484C93.1795 27.1013 92.7129 26.91 92.1062 26.91ZM99.4034 33.126C98.6007 33.126 97.9987 32.916 97.5974 32.496C97.196 32.0667 96.9954 31.4507 96.9954 30.648V27.078H95.6654V26.196H96.9954V24.11H98.1294V26.196H100.285V27.078H98.1294V30.536C98.1294 31.068 98.2414 31.474 98.4654 31.754C98.6894 32.0247 99.0534 32.16 99.5574 32.16C99.7067 32.16 99.856 32.1413 100.005 32.104C100.155 32.0667 100.29 32.0293 100.411 31.992L100.607 32.86C100.486 32.9253 100.309 32.986 100.075 33.042C99.842 33.098 99.618 33.126 99.4034 33.126ZM107.306 33.126C106.839 33.126 106.419 33.0373 106.046 32.86C105.682 32.6733 105.392 32.4213 105.178 32.104C104.963 31.7867 104.856 31.432 104.856 31.04C104.856 30.5453 104.982 30.1533 105.234 29.864C105.495 29.5747 105.92 29.3693 106.508 29.248C107.105 29.1173 107.917 29.052 108.944 29.052H109.392V28.618C109.392 28.0393 109.27 27.624 109.028 27.372C108.794 27.1107 108.416 26.98 107.894 26.98C107.483 26.98 107.086 27.0407 106.704 27.162C106.321 27.274 105.929 27.4607 105.528 27.722L105.136 26.896C105.49 26.644 105.92 26.4433 106.424 26.294C106.937 26.1447 107.427 26.07 107.894 26.07C108.771 26.07 109.42 26.2847 109.84 26.714C110.269 27.1433 110.484 27.8107 110.484 28.716V33H109.42V31.824C109.242 32.2253 108.967 32.5427 108.594 32.776C108.23 33.0093 107.8 33.126 107.306 33.126ZM107.488 32.272C108.048 32.272 108.505 32.0807 108.86 31.698C109.214 31.306 109.392 30.8113 109.392 30.214V29.794H108.958C108.202 29.794 107.604 29.8313 107.166 29.906C106.736 29.9713 106.433 30.0927 106.256 30.27C106.088 30.438 106.004 30.6713 106.004 30.97C106.004 31.3527 106.134 31.6653 106.396 31.908C106.666 32.1507 107.03 32.272 107.488 32.272ZM119.067 33.126C118.386 33.126 117.798 32.9813 117.303 32.692C116.808 32.3933 116.426 31.978 116.155 31.446C115.894 30.9047 115.763 30.2747 115.763 29.556C115.763 28.4733 116.057 27.624 116.645 27.008C117.233 26.3827 118.04 26.07 119.067 26.07C119.487 26.07 119.902 26.1447 120.313 26.294C120.724 26.4433 121.064 26.6533 121.335 26.924L120.943 27.75C120.672 27.4887 120.374 27.2973 120.047 27.176C119.73 27.0547 119.426 26.994 119.137 26.994C118.428 26.994 117.882 27.218 117.499 27.666C117.116 28.1047 116.925 28.7393 116.925 29.57C116.925 30.382 117.116 31.026 117.499 31.502C117.882 31.9687 118.428 32.202 119.137 32.202C119.426 32.202 119.73 32.1413 120.047 32.02C120.374 31.8987 120.672 31.7027 120.943 31.432L121.335 32.258C121.064 32.5287 120.719 32.7433 120.299 32.902C119.888 33.0513 119.478 33.126 119.067 33.126ZM125.355 33.126C124.692 33.126 124.118 32.9813 123.633 32.692C123.148 32.4027 122.77 31.9967 122.499 31.474C122.238 30.942 122.107 30.3167 122.107 29.598C122.107 28.8793 122.238 28.2587 122.499 27.736C122.77 27.204 123.148 26.7933 123.633 26.504C124.118 26.2147 124.692 26.07 125.355 26.07C126.008 26.07 126.578 26.2147 127.063 26.504C127.558 26.7933 127.936 27.204 128.197 27.736C128.468 28.2587 128.603 28.8793 128.603 29.598C128.603 30.3167 128.468 30.942 128.197 31.474C127.936 31.9967 127.558 32.4027 127.063 32.692C126.578 32.9813 126.008 33.126 125.355 33.126ZM125.355 32.216C125.99 32.216 126.498 31.992 126.881 31.544C127.264 31.0867 127.455 30.438 127.455 29.598C127.455 28.7487 127.264 28.1 126.881 27.652C126.498 27.204 125.99 26.98 125.355 26.98C124.711 26.98 124.198 27.204 123.815 27.652C123.442 28.1 123.255 28.7487 123.255 29.598C123.255 30.438 123.442 31.0867 123.815 31.544C124.198 31.992 124.711 32.216 125.355 32.216ZM132.602 33.126C132.07 33.126 131.566 33.0513 131.09 32.902C130.614 32.7527 130.222 32.5427 129.914 32.272L130.278 31.474C130.614 31.7447 130.983 31.9453 131.384 32.076C131.795 32.1973 132.21 32.258 132.63 32.258C133.162 32.258 133.564 32.16 133.834 31.964C134.105 31.768 134.24 31.502 134.24 31.166C134.24 30.9047 134.152 30.6993 133.974 30.55C133.797 30.3913 133.517 30.27 133.134 30.186L131.86 29.906C130.703 29.654 130.124 29.0567 130.124 28.114C130.124 27.498 130.367 27.0033 130.852 26.63C131.347 26.2567 131.991 26.07 132.784 26.07C133.251 26.07 133.694 26.1447 134.114 26.294C134.544 26.434 134.898 26.644 135.178 26.924L134.8 27.722C134.53 27.47 134.212 27.2787 133.848 27.148C133.494 27.008 133.139 26.938 132.784 26.938C132.262 26.938 131.865 27.0407 131.594 27.246C131.324 27.4513 131.188 27.722 131.188 28.058C131.188 28.5807 131.534 28.9167 132.224 29.066L133.498 29.332C134.096 29.4627 134.548 29.6727 134.856 29.962C135.164 30.242 135.318 30.6247 135.318 31.11C135.318 31.7353 135.071 32.23 134.576 32.594C134.082 32.9487 133.424 33.126 132.602 33.126ZM139.708 33.126C138.905 33.126 138.303 32.916 137.902 32.496C137.501 32.0667 137.3 31.4507 137.3 30.648V27.078H135.97V26.196H137.3V24.11H138.434V26.196H140.59V27.078H138.434V30.536C138.434 31.068 138.546 31.474 138.77 31.754C138.994 32.0247 139.358 32.16 139.862 32.16C140.011 32.16 140.161 32.1413 140.31 32.104C140.459 32.0667 140.595 32.0293 140.716 31.992L140.912 32.86C140.791 32.9253 140.613 32.986 140.38 33.042C140.147 33.098 139.923 33.126 139.708 33.126ZM148.534 33.126C147.461 33.126 146.612 32.8133 145.986 32.188C145.361 31.5533 145.048 30.6947 145.048 29.612C145.048 28.912 145.188 28.296 145.468 27.764C145.748 27.2227 146.131 26.8073 146.616 26.518C147.111 26.2193 147.68 26.07 148.324 26.07C149.248 26.07 149.972 26.3687 150.494 26.966C151.017 27.554 151.278 28.366 151.278 29.402V29.836H146.154C146.192 30.6107 146.416 31.2033 146.826 31.614C147.237 32.0153 147.806 32.216 148.534 32.216C148.945 32.216 149.337 32.1553 149.71 32.034C150.084 31.9033 150.438 31.6933 150.774 31.404L151.166 32.202C150.858 32.4913 150.466 32.72 149.99 32.888C149.514 33.0467 149.029 33.126 148.534 33.126ZM148.352 26.91C147.708 26.91 147.2 27.1107 146.826 27.512C146.453 27.9133 146.234 28.4407 146.168 29.094H150.298C150.27 28.4033 150.088 27.8667 149.752 27.484C149.426 27.1013 148.959 26.91 148.352 26.91ZM155.215 33.126C154.683 33.126 154.179 33.0513 153.703 32.902C153.227 32.7527 152.835 32.5427 152.527 32.272L152.891 31.474C153.227 31.7447 153.596 31.9453 153.997 32.076C154.408 32.1973 154.823 32.258 155.243 32.258C155.775 32.258 156.177 32.16 156.447 31.964C156.718 31.768 156.853 31.502 156.853 31.166C156.853 30.9047 156.765 30.6993 156.587 30.55C156.41 30.3913 156.13 30.27 155.747 30.186L154.473 29.906C153.316 29.654 152.737 29.0567 152.737 28.114C152.737 27.498 152.98 27.0033 153.465 26.63C153.96 26.2567 154.604 26.07 155.397 26.07C155.864 26.07 156.307 26.1447 156.727 26.294C157.157 26.434 157.511 26.644 157.791 26.924L157.413 27.722C157.143 27.47 156.825 27.2787 156.461 27.148C156.107 27.008 155.752 26.938 155.397 26.938C154.875 26.938 154.478 27.0407 154.207 27.246C153.937 27.4513 153.801 27.722 153.801 28.058C153.801 28.5807 154.147 28.9167 154.837 29.066L156.111 29.332C156.709 29.4627 157.161 29.6727 157.469 29.962C157.777 30.242 157.931 30.6247 157.931 31.11C157.931 31.7353 157.684 32.23 157.189 32.594C156.695 32.9487 156.037 33.126 155.215 33.126ZM162.321 33.126C161.519 33.126 160.917 32.916 160.515 32.496C160.114 32.0667 159.913 31.4507 159.913 30.648V27.078H158.583V26.196H159.913V24.11H161.047V26.196H163.203V27.078H161.047V30.536C161.047 31.068 161.159 31.474 161.383 31.754C161.607 32.0247 161.971 32.16 162.475 32.16C162.625 32.16 162.774 32.1413 162.923 32.104C163.073 32.0667 163.208 32.0293 163.329 31.992L163.525 32.86C163.404 32.9253 163.227 32.986 162.993 33.042C162.76 33.098 162.536 33.126 162.321 33.126ZM164.346 24.502V23.228H165.746V24.502H164.346ZM164.486 33V26.196H165.62V33H164.486ZM167.768 33V26.196H168.874V27.344C169.079 26.9333 169.364 26.6207 169.728 26.406C170.092 26.182 170.516 26.07 171.002 26.07C172.066 26.07 172.747 26.532 173.046 27.456C173.251 27.0267 173.554 26.6907 173.956 26.448C174.357 26.196 174.819 26.07 175.342 26.07C176.854 26.07 177.61 26.966 177.61 28.758V33H176.476V28.814C176.476 28.1887 176.364 27.7313 176.14 27.442C175.925 27.1433 175.566 26.994 175.062 26.994C174.511 26.994 174.072 27.19 173.746 27.582C173.419 27.974 173.256 28.4967 173.256 29.15V33H172.122V28.814C172.122 28.1887 172.01 27.7313 171.786 27.442C171.571 27.1433 171.212 26.994 170.708 26.994C170.148 26.994 169.704 27.19 169.378 27.582C169.06 27.974 168.902 28.4967 168.902 29.15V33H167.768ZM181.872 33.126C181.405 33.126 180.985 33.0373 180.612 32.86C180.248 32.6733 179.959 32.4213 179.744 32.104C179.529 31.7867 179.422 31.432 179.422 31.04C179.422 30.5453 179.548 30.1533 179.8 29.864C180.061 29.5747 180.486 29.3693 181.074 29.248C181.671 29.1173 182.483 29.052 183.51 29.052H183.958V28.618C183.958 28.0393 183.837 27.624 183.594 27.372C183.361 27.1107 182.983 26.98 182.46 26.98C182.049 26.98 181.653 27.0407 181.27 27.162C180.887 27.274 180.495 27.4607 180.094 27.722L179.702 26.896C180.057 26.644 180.486 26.4433 180.99 26.294C181.503 26.1447 181.993 26.07 182.46 26.07C183.337 26.07 183.986 26.2847 184.406 26.714C184.835 27.1433 185.05 27.8107 185.05 28.716V33H183.986V31.824C183.809 32.2253 183.533 32.5427 183.16 32.776C182.796 33.0093 182.367 33.126 181.872 33.126ZM182.054 32.272C182.614 32.272 183.071 32.0807 183.426 31.698C183.781 31.306 183.958 30.8113 183.958 30.214V29.794H183.524C182.768 29.794 182.171 29.8313 181.732 29.906C181.303 29.9713 180.999 30.0927 180.822 30.27C180.654 30.438 180.57 30.6713 180.57 30.97C180.57 31.3527 180.701 31.6653 180.962 31.908C181.233 32.1507 181.597 32.272 182.054 32.272ZM189.884 33.126C189.081 33.126 188.479 32.916 188.078 32.496C187.677 32.0667 187.476 31.4507 187.476 30.648V27.078H186.146V26.196H187.476V24.11H188.61V26.196H190.766V27.078H188.61V30.536C188.61 31.068 188.722 31.474 188.946 31.754C189.17 32.0247 189.534 32.16 190.038 32.16C190.187 32.16 190.337 32.1413 190.486 32.104C190.635 32.0667 190.771 32.0293 190.892 31.992L191.088 32.86C190.967 32.9253 190.789 32.986 190.556 33.042C190.323 33.098 190.099 33.126 189.884 33.126ZM195.046 33.126C193.973 33.126 193.123 32.8133 192.498 32.188C191.873 31.5533 191.56 30.6947 191.56 29.612C191.56 28.912 191.7 28.296 191.98 27.764C192.26 27.2227 192.643 26.8073 193.128 26.518C193.623 26.2193 194.192 26.07 194.836 26.07C195.76 26.07 196.483 26.3687 197.006 26.966C197.529 27.554 197.79 28.366 197.79 29.402V29.836H192.666C192.703 30.6107 192.927 31.2033 193.338 31.614C193.749 32.0153 194.318 32.216 195.046 32.216C195.457 32.216 195.849 32.1553 196.222 32.034C196.595 31.9033 196.95 31.6933 197.286 31.404L197.678 32.202C197.37 32.4913 196.978 32.72 196.502 32.888C196.026 33.0467 195.541 33.126 195.046 33.126ZM194.864 26.91C194.22 26.91 193.711 27.1107 193.338 27.512C192.965 27.9133 192.745 28.4407 192.68 29.094H196.81C196.782 28.4033 196.6 27.8667 196.264 27.484C195.937 27.1013 195.471 26.91 194.864 26.91ZM205.169 33.126C204.702 33.126 204.282 33.0373 203.909 32.86C203.545 32.6733 203.256 32.4213 203.041 32.104C202.826 31.7867 202.719 31.432 202.719 31.04C202.719 30.5453 202.845 30.1533 203.097 29.864C203.358 29.5747 203.783 29.3693 204.371 29.248C204.968 29.1173 205.78 29.052 206.807 29.052H207.255V28.618C207.255 28.0393 207.134 27.624 206.891 27.372C206.658 27.1107 206.28 26.98 205.757 26.98C205.346 26.98 204.95 27.0407 204.567 27.162C204.184 27.274 203.792 27.4607 203.391 27.722L202.999 26.896C203.354 26.644 203.783 26.4433 204.287 26.294C204.8 26.1447 205.29 26.07 205.757 26.07C206.634 26.07 207.283 26.2847 207.703 26.714C208.132 27.1433 208.347 27.8107 208.347 28.716V33H207.283V31.824C207.106 32.2253 206.83 32.5427 206.457 32.776C206.093 33.0093 205.664 33.126 205.169 33.126ZM205.351 32.272C205.911 32.272 206.368 32.0807 206.723 31.698C207.078 31.306 207.255 30.8113 207.255 30.214V29.794H206.821C206.065 29.794 205.468 29.8313 205.029 29.906C204.6 29.9713 204.296 30.0927 204.119 30.27C203.951 30.438 203.867 30.6713 203.867 30.97C203.867 31.3527 203.998 31.6653 204.259 31.908C204.53 32.1507 204.894 32.272 205.351 32.272ZM210.451 33V26.196H211.557V27.358C211.781 26.9287 212.098 26.6067 212.509 26.392C212.919 26.1773 213.381 26.07 213.895 26.07C215.509 26.07 216.317 26.966 216.317 28.758V33H215.183V28.828C215.183 28.1933 215.057 27.7313 214.805 27.442C214.562 27.1433 214.17 26.994 213.629 26.994C213.003 26.994 212.504 27.19 212.131 27.582C211.767 27.9647 211.585 28.478 211.585 29.122V33H210.451ZM220.998 33.126C220.391 33.126 219.859 32.9813 219.402 32.692C218.954 32.4027 218.604 31.9967 218.352 31.474C218.109 30.942 217.988 30.3167 217.988 29.598C217.988 28.87 218.109 28.2447 218.352 27.722C218.604 27.19 218.954 26.784 219.402 26.504C219.859 26.2147 220.391 26.07 220.998 26.07C221.53 26.07 221.996 26.1867 222.398 26.42C222.808 26.6533 223.112 26.9753 223.308 27.386V23.13H224.442V33H223.336V31.754C223.14 32.1833 222.836 32.5193 222.426 32.762C222.015 33.0047 221.539 33.126 220.998 33.126ZM221.236 32.216C221.87 32.216 222.379 31.992 222.762 31.544C223.144 31.0867 223.336 30.438 223.336 29.598C223.336 28.7487 223.144 28.1 222.762 27.652C222.379 27.204 221.87 26.98 221.236 26.98C220.592 26.98 220.078 27.204 219.696 27.652C219.322 28.1 219.136 28.7487 219.136 29.598C219.136 30.438 219.322 31.0867 219.696 31.544C220.078 31.992 220.592 32.216 221.236 32.216ZM81.794 52.126C80.9913 52.126 80.3893 51.916 79.988 51.496C79.5867 51.0667 79.386 50.4507 79.386 49.648V46.078H78.056V45.196H79.386V43.11H80.52V45.196H82.676V46.078H80.52V49.536C80.52 50.068 80.632 50.474 80.856 50.754C81.08 51.0247 81.444 51.16 81.948 51.16C82.0973 51.16 82.2467 51.1413 82.396 51.104C82.5453 51.0667 82.6807 51.0293 82.802 50.992L82.998 51.86C82.8767 51.9253 82.6993 51.986 82.466 52.042C82.2327 52.098 82.0087 52.126 81.794 52.126ZM83.9585 52V42.13H85.0925V46.316C85.3165 45.9053 85.6292 45.5973 86.0305 45.392C86.4412 45.1773 86.8985 45.07 87.4025 45.07C89.0172 45.07 89.8245 45.966 89.8245 47.758V52H88.6905V47.828C88.6905 47.1933 88.5645 46.7313 88.3125 46.442C88.0699 46.1433 87.6779 45.994 87.1365 45.994C86.5112 45.994 86.0119 46.19 85.6385 46.582C85.2745 46.9647 85.0925 47.478 85.0925 48.122V52H83.9585ZM94.9816 52.126C93.9082 52.126 93.0589 51.8133 92.4336 51.188C91.8082 50.5533 91.4956 49.6947 91.4956 48.612C91.4956 47.912 91.6356 47.296 91.9156 46.764C92.1956 46.2227 92.5782 45.8073 93.0636 45.518C93.5582 45.2193 94.1276 45.07 94.7716 45.07C95.6956 45.07 96.4189 45.3687 96.9416 45.966C97.4642 46.554 97.7256 47.366 97.7256 48.402V48.836H92.6016C92.6389 49.6107 92.8629 50.2033 93.2736 50.614C93.6842 51.0153 94.2536 51.216 94.9816 51.216C95.3922 51.216 95.7842 51.1553 96.1576 51.034C96.5309 50.9033 96.8856 50.6933 97.2216 50.404L97.6136 51.202C97.3056 51.4913 96.9136 51.72 96.4376 51.888C95.9616 52.0467 95.4762 52.126 94.9816 52.126ZM94.7996 45.91C94.1556 45.91 93.6469 46.1107 93.2736 46.512C92.9002 46.9133 92.6809 47.4407 92.6156 48.094H96.7456C96.7176 47.4033 96.5356 46.8667 96.1996 46.484C95.8729 46.1013 95.4062 45.91 94.7996 45.91ZM105.692 52.126C104.89 52.126 104.288 51.916 103.886 51.496C103.485 51.0667 103.284 50.4507 103.284 49.648V46.078H101.954V45.196H103.284V43.11H104.418V45.196H106.574V46.078H104.418V49.536C104.418 50.068 104.53 50.474 104.754 50.754C104.978 51.0247 105.342 51.16 105.846 51.16C105.996 51.16 106.145 51.1413 106.294 51.104C106.444 51.0667 106.579 51.0293 106.7 50.992L106.896 51.86C106.775 51.9253 106.598 51.986 106.364 52.042C106.131 52.098 105.907 52.126 105.692 52.126ZM107.717 43.502V42.228H109.117V43.502H107.717ZM107.857 52V45.196H108.991V52H107.857ZM111.139 52V45.196H112.245V46.344C112.45 45.9333 112.735 45.6207 113.099 45.406C113.463 45.182 113.888 45.07 114.373 45.07C115.437 45.07 116.118 45.532 116.417 46.456C116.622 46.0267 116.926 45.6907 117.327 45.448C117.728 45.196 118.19 45.07 118.713 45.07C120.225 45.07 120.981 45.966 120.981 47.758V52H119.847V47.814C119.847 47.1887 119.735 46.7313 119.511 46.442C119.296 46.1433 118.937 45.994 118.433 45.994C117.882 45.994 117.444 46.19 117.117 46.582C116.79 46.974 116.627 47.4967 116.627 48.15V52H115.493V47.814C115.493 47.1887 115.381 46.7313 115.157 46.442C114.942 46.1433 114.583 45.994 114.079 45.994C113.519 45.994 113.076 46.19 112.749 46.582C112.432 46.974 112.273 47.4967 112.273 48.15V52H111.139ZM122.961 43.502V42.228H124.361V43.502H122.961ZM123.101 52V45.196H124.235V52H123.101ZM126.355 52V45.196H127.461V46.358C127.685 45.9287 128.002 45.6067 128.413 45.392C128.824 45.1773 129.286 45.07 129.799 45.07C131.414 45.07 132.221 45.966 132.221 47.758V52H131.087V47.828C131.087 47.1933 130.961 46.7313 130.709 46.442C130.466 46.1433 130.074 45.994 129.533 45.994C128.908 45.994 128.408 46.19 128.035 46.582C127.671 46.9647 127.489 47.478 127.489 48.122V52H126.355ZM137.322 54.646C136.734 54.646 136.179 54.5667 135.656 54.408C135.143 54.2587 134.685 54.03 134.284 53.722L134.662 52.896C135.082 53.1947 135.497 53.4093 135.908 53.54C136.328 53.6707 136.781 53.736 137.266 53.736C138.61 53.736 139.282 53.0453 139.282 51.664V50.46C139.086 50.8893 138.778 51.23 138.358 51.482C137.947 51.7247 137.476 51.846 136.944 51.846C136.319 51.846 135.777 51.7013 135.32 51.412C134.863 51.1227 134.508 50.726 134.256 50.222C134.013 49.7087 133.892 49.116 133.892 48.444C133.892 47.772 134.013 47.184 134.256 46.68C134.508 46.1667 134.863 45.77 135.32 45.49C135.777 45.21 136.319 45.07 136.944 45.07C137.476 45.07 137.947 45.1913 138.358 45.434C138.778 45.6767 139.086 46.008 139.282 46.428V45.196H140.388V51.51C140.388 52.5553 140.127 53.3393 139.604 53.862C139.091 54.3847 138.33 54.646 137.322 54.646ZM137.154 50.922C137.807 50.922 138.325 50.698 138.708 50.25C139.091 49.802 139.282 49.2 139.282 48.444C139.282 47.688 139.091 47.0907 138.708 46.652C138.325 46.204 137.807 45.98 137.154 45.98C136.51 45.98 135.997 46.204 135.614 46.652C135.231 47.0907 135.04 47.688 135.04 48.444C135.04 49.2 135.231 49.802 135.614 50.25C135.997 50.698 136.51 50.922 137.154 50.922ZM148.939 52.126C148.276 52.126 147.702 51.9813 147.217 51.692C146.732 51.4027 146.354 50.9967 146.083 50.474C145.822 49.942 145.691 49.3167 145.691 48.598C145.691 47.8793 145.822 47.2587 146.083 46.736C146.354 46.204 146.732 45.7933 147.217 45.504C147.702 45.2147 148.276 45.07 148.939 45.07C149.592 45.07 150.162 45.2147 150.647 45.504C151.142 45.7933 151.52 46.204 151.781 46.736C152.052 47.2587 152.187 47.8793 152.187 48.598C152.187 49.3167 152.052 49.942 151.781 50.474C151.52 50.9967 151.142 51.4027 150.647 51.692C150.162 51.9813 149.592 52.126 148.939 52.126ZM148.939 51.216C149.574 51.216 150.082 50.992 150.465 50.544C150.848 50.0867 151.039 49.438 151.039 48.598C151.039 47.7487 150.848 47.1 150.465 46.652C150.082 46.204 149.574 45.98 148.939 45.98C148.295 45.98 147.782 46.204 147.399 46.652C147.026 47.1 146.839 47.7487 146.839 48.598C146.839 49.438 147.026 50.0867 147.399 50.544C147.782 50.992 148.295 51.216 148.939 51.216ZM154.186 52V46.078H152.842V45.196H154.186V44.958C154.186 44.0527 154.41 43.3667 154.858 42.9C155.315 42.4333 156.015 42.172 156.958 42.116L157.504 42.088L157.602 42.956L156.958 42.998C156.379 43.0447 155.959 43.2173 155.698 43.516C155.446 43.8147 155.32 44.2487 155.32 44.818V45.196H157.28V46.078H155.32V52H154.186ZM162.864 54.52L164.026 51.888L161.156 45.196H162.388L164.642 50.712L166.91 45.196H168.1L164.054 54.52H162.864ZM172.003 52.126C171.341 52.126 170.767 51.9813 170.281 51.692C169.796 51.4027 169.418 50.9967 169.147 50.474C168.886 49.942 168.755 49.3167 168.755 48.598C168.755 47.8793 168.886 47.2587 169.147 46.736C169.418 46.204 169.796 45.7933 170.281 45.504C170.767 45.2147 171.341 45.07 172.003 45.07C172.657 45.07 173.226 45.2147 173.711 45.504C174.206 45.7933 174.584 46.204 174.845 46.736C175.116 47.2587 175.251 47.8793 175.251 48.598C175.251 49.3167 175.116 49.942 174.845 50.474C174.584 50.9967 174.206 51.4027 173.711 51.692C173.226 51.9813 172.657 52.126 172.003 52.126ZM172.003 51.216C172.638 51.216 173.147 50.992 173.529 50.544C173.912 50.0867 174.103 49.438 174.103 48.598C174.103 47.7487 173.912 47.1 173.529 46.652C173.147 46.204 172.638 45.98 172.003 45.98C171.359 45.98 170.846 46.204 170.463 46.652C170.09 47.1 169.903 47.7487 169.903 48.598C169.903 49.438 170.09 50.0867 170.463 50.544C170.846 50.992 171.359 51.216 172.003 51.216ZM179.363 52.126C177.729 52.126 176.913 51.2253 176.913 49.424V45.196H178.047V49.41C178.047 50.0167 178.168 50.4647 178.411 50.754C178.663 51.0433 179.055 51.188 179.587 51.188C180.165 51.188 180.637 50.9967 181.001 50.614C181.365 50.222 181.547 49.704 181.547 49.06V45.196H182.681V52H181.575V50.852C181.36 51.2627 181.057 51.58 180.665 51.804C180.282 52.0187 179.848 52.126 179.363 52.126ZM184.802 52V45.196H185.908V46.414C186.272 45.5927 187.019 45.14 188.148 45.056L188.554 45.014L188.638 45.994L187.924 46.078C187.28 46.134 186.79 46.3393 186.454 46.694C186.118 47.0393 185.95 47.5153 185.95 48.122V52H184.802ZM193.78 52V46.078H192.436V45.196H193.78V44.958C193.78 44.0527 194.004 43.3667 194.452 42.9C194.909 42.4333 195.609 42.172 196.552 42.116L197.098 42.088L197.196 42.956L196.552 42.998C195.973 43.0447 195.553 43.2173 195.292 43.516C195.04 43.8147 194.914 44.2487 194.914 44.818V45.196H196.874V46.078H194.914V52H193.78ZM200.486 52.126C198.852 52.126 198.036 51.2253 198.036 49.424V45.196H199.17V49.41C199.17 50.0167 199.291 50.4647 199.534 50.754C199.786 51.0433 200.178 51.188 200.71 51.188C201.288 51.188 201.76 50.9967 202.124 50.614C202.488 50.222 202.67 49.704 202.67 49.06V45.196H203.804V52H202.698V50.852C202.483 51.2627 202.18 51.58 201.788 51.804C201.405 52.0187 200.971 52.126 200.486 52.126ZM208.655 52.126C207.853 52.126 207.251 51.916 206.849 51.496C206.448 51.0667 206.247 50.4507 206.247 49.648V46.078H204.917V45.196H206.247V43.11H207.381V45.196H209.537V46.078H207.381V49.536C207.381 50.068 207.493 50.474 207.717 50.754C207.941 51.0247 208.305 51.16 208.809 51.16C208.959 51.16 209.108 51.1413 209.257 51.104C209.407 51.0667 209.542 51.0293 209.663 50.992L209.859 51.86C209.738 51.9253 209.561 51.986 209.327 52.042C209.094 52.098 208.87 52.126 208.655 52.126ZM213.228 52.126C211.595 52.126 210.778 51.2253 210.778 49.424V45.196H211.912V49.41C211.912 50.0167 212.033 50.4647 212.276 50.754C212.528 51.0433 212.92 51.188 213.452 51.188C214.031 51.188 214.502 50.9967 214.866 50.614C215.23 50.222 215.412 49.704 215.412 49.06V45.196H216.546V52H215.44V50.852C215.225 51.2627 214.922 51.58 214.53 51.804C214.147 52.0187 213.713 52.126 213.228 52.126ZM218.668 52V45.196H219.774V46.414C220.138 45.5927 220.884 45.14 222.014 45.056L222.42 45.014L222.504 45.994L221.79 46.078C221.146 46.134 220.656 46.3393 220.32 46.694C219.984 47.0393 219.816 47.5153 219.816 48.122V52H218.668ZM226.669 52.126C225.596 52.126 224.746 51.8133 224.121 51.188C223.496 50.5533 223.183 49.6947 223.183 48.612C223.183 47.912 223.323 47.296 223.603 46.764C223.883 46.2227 224.266 45.8073 224.751 45.518C225.246 45.2193 225.815 45.07 226.459 45.07C227.383 45.07 228.106 45.3687 228.629 45.966C229.152 46.554 229.413 47.366 229.413 48.402V48.836H224.289C224.326 49.6107 224.55 50.2033 224.961 50.614C225.372 51.0153 225.941 51.216 226.669 51.216C227.08 51.216 227.472 51.1553 227.845 51.034C228.218 50.9033 228.573 50.6933 228.909 50.404L229.301 51.202C228.993 51.4913 228.601 51.72 228.125 51.888C227.649 52.0467 227.164 52.126 226.669 52.126ZM226.487 45.91C225.843 45.91 225.334 46.1107 224.961 46.512C224.588 46.9133 224.368 47.4407 224.303 48.094H228.433C228.405 47.4033 228.223 46.8667 227.887 46.484C227.56 46.1013 227.094 45.91 226.487 45.91ZM234.65 52V45.196H235.756V46.414C236.12 45.5927 236.867 45.14 237.996 45.056L238.402 45.014L238.486 45.994L237.772 46.078C237.128 46.134 236.638 46.3393 236.302 46.694C235.966 47.0393 235.798 47.5153 235.798 48.122V52H234.65ZM242.651 52.126C241.578 52.126 240.729 51.8133 240.103 51.188C239.478 50.5533 239.165 49.6947 239.165 48.612C239.165 47.912 239.305 47.296 239.585 46.764C239.865 46.2227 240.248 45.8073 240.733 45.518C241.228 45.2193 241.797 45.07 242.441 45.07C243.365 45.07 244.089 45.3687 244.611 45.966C245.134 46.554 245.395 47.366 245.395 48.402V48.836H240.271C240.309 49.6107 240.533 50.2033 240.943 50.614C241.354 51.0153 241.923 51.216 242.651 51.216C243.062 51.216 243.454 51.1553 243.827 51.034C244.201 50.9033 244.555 50.6933 244.891 50.404L245.283 51.202C244.975 51.4913 244.583 51.72 244.107 51.888C243.631 52.0467 243.146 52.126 242.651 52.126ZM242.469 45.91C241.825 45.91 241.317 46.1107 240.943 46.512C240.57 46.9133 240.351 47.4407 240.285 48.094H244.415C244.387 47.4033 244.205 46.8667 243.869 46.484C243.543 46.1013 243.076 45.91 242.469 45.91ZM247.037 54.52V45.196H248.143V46.414C248.348 45.994 248.651 45.6673 249.053 45.434C249.463 45.1913 249.939 45.07 250.481 45.07C251.087 45.07 251.615 45.2147 252.063 45.504C252.52 45.784 252.87 46.19 253.113 46.722C253.365 47.2447 253.491 47.87 253.491 48.598C253.491 49.3167 253.365 49.942 253.113 50.474C252.87 50.9967 252.52 51.4027 252.063 51.692C251.615 51.9813 251.087 52.126 250.481 52.126C249.958 52.126 249.491 52.0093 249.081 51.776C248.67 51.5427 248.367 51.2207 248.171 50.81V54.52H247.037ZM250.243 51.216C250.877 51.216 251.386 50.992 251.769 50.544C252.151 50.0867 252.343 49.438 252.343 48.598C252.343 47.7487 252.151 47.1 251.769 46.652C251.386 46.204 250.877 45.98 250.243 45.98C249.608 45.98 249.099 46.204 248.717 46.652C248.334 47.1 248.143 47.7487 248.143 48.598C248.143 49.438 248.334 50.0867 248.717 50.544C249.099 50.992 249.608 51.216 250.243 51.216ZM257.341 52.126C256.874 52.126 256.454 52.0373 256.081 51.86C255.717 51.6733 255.427 51.4213 255.213 51.104C254.998 50.7867 254.891 50.432 254.891 50.04C254.891 49.5453 255.017 49.1533 255.269 48.864C255.53 48.5747 255.955 48.3693 256.543 48.248C257.14 48.1173 257.952 48.052 258.979 48.052H259.427V47.618C259.427 47.0393 259.305 46.624 259.063 46.372C258.829 46.1107 258.451 45.98 257.929 45.98C257.518 45.98 257.121 46.0407 256.739 46.162C256.356 46.274 255.964 46.4607 255.563 46.722L255.171 45.896C255.525 45.644 255.955 45.4433 256.459 45.294C256.972 45.1447 257.462 45.07 257.929 45.07C258.806 45.07 259.455 45.2847 259.875 45.714C260.304 46.1433 260.519 46.8107 260.519 47.716V52H259.455V50.824C259.277 51.2253 259.002 51.5427 258.629 51.776C258.265 52.0093 257.835 52.126 257.341 52.126ZM257.523 51.272C258.083 51.272 258.54 51.0807 258.895 50.698C259.249 50.306 259.427 49.8113 259.427 49.214V48.794H258.993C258.237 48.794 257.639 48.8313 257.201 48.906C256.771 48.9713 256.468 49.0927 256.291 49.27C256.123 49.438 256.039 49.6713 256.039 49.97C256.039 50.3527 256.169 50.6653 256.431 50.908C256.701 51.1507 257.065 51.272 257.523 51.272ZM262.483 43.502V42.228H263.883V43.502H262.483ZM262.623 52V45.196H263.757V52H262.623ZM265.877 52V45.196H266.983V46.414C267.347 45.5927 268.093 45.14 269.223 45.056L269.629 45.014L269.713 45.994L268.999 46.078C268.355 46.134 267.865 46.3393 267.529 46.694C267.193 47.0393 267.025 47.5153 267.025 48.122V52H265.877ZM273.122 52.126C272.59 52.126 272.086 52.0513 271.61 51.902C271.134 51.7527 270.742 51.5427 270.434 51.272L270.798 50.474C271.134 50.7447 271.502 50.9453 271.904 51.076C272.314 51.1973 272.73 51.258 273.15 51.258C273.682 51.258 274.083 51.16 274.354 50.964C274.624 50.768 274.76 50.502 274.76 50.166C274.76 49.9047 274.671 49.6993 274.494 49.55C274.316 49.3913 274.036 49.27 273.654 49.186L272.38 48.906C271.222 48.654 270.644 48.0567 270.644 47.114C270.644 46.498 270.886 46.0033 271.372 45.63C271.866 45.2567 272.51 45.07 273.304 45.07C273.77 45.07 274.214 45.1447 274.634 45.294C275.063 45.434 275.418 45.644 275.698 45.924L275.32 46.722C275.049 46.47 274.732 46.2787 274.368 46.148C274.013 46.008 273.658 45.938 273.304 45.938C272.781 45.938 272.384 46.0407 272.114 46.246C271.843 46.4513 271.708 46.722 271.708 47.058C271.708 47.5807 272.053 47.9167 272.744 48.066L274.018 48.332C274.615 48.4627 275.068 48.6727 275.376 48.962C275.684 49.242 275.838 49.6247 275.838 50.11C275.838 50.7353 275.59 51.23 275.096 51.594C274.601 51.9487 273.943 52.126 273.122 52.126Z" fill="#363636"/>
<defs>
<filter id="filter0_d_1_11108" x="0" y="0" width="87.7571" height="87.7568" filterUnits="userSpaceOnUse" color-interpolation-filters="sRGB">
<feFlood flood-opacity="0" result="BackgroundImageFix"/>
<feColorMatrix in="SourceAlpha" type="matrix" values="0 0 0 0 0 0 0 0 0 0 0 0 0 0 0 0 0 0 127 0" result="hardAlpha"/>
<feOffset dy="5"/>
<feGaussianBlur stdDeviation="7.5"/>
<feColorMatrix type="matrix" values="0 0 0 0 0.890196 0 0 0 0 0.721569 0 0 0 0 0.45098 0 0 0 0.15 0"/>
<feBlend mode="normal" in2="BackgroundImageFix" result="effect1_dropShadow_1_11108"/>
<feBlend mode="normal" in="SourceGraphic" in2="effect1_dropShadow_1_11108" result="shape"/>
</filter>
</defs>
</svg>
