<svg width="170" height="88" viewBox="0 0 170 88" fill="none" xmlns="http://www.w3.org/2000/svg">
<g filter="url(#filter0_d_10642_3)">
<rect x="23" y="18" width="41.7571" height="41.7571" rx="20.8785" fill="#E3B873"/>
<rect x="19" y="14" width="49.7571" height="49.7571" rx="24.8785" stroke="white" stroke-width="8"/>
</g>
<path d="M38.4708 44.7514C37.4988 44.7514 36.6168 44.4934 35.8248 43.9774C35.0328 43.4614 34.4028 42.7114 33.9348 41.7274C33.4788 40.7314 33.2508 39.5494 33.2508 38.1814C33.2508 36.8134 33.4788 35.6374 33.9348 34.6534C34.4028 33.6574 35.0328 32.9014 35.8248 32.3854C36.6168 31.8694 37.4988 31.6114 38.4708 31.6114C39.4428 31.6114 40.3248 31.8694 41.1168 32.3854C41.9088 32.9014 42.5328 33.6574 42.9888 34.6534C43.4568 35.6374 43.6908 36.8134 43.6908 38.1814C43.6908 39.5494 43.4568 40.7314 42.9888 41.7274C42.5328 42.7114 41.9088 43.4614 41.1168 43.9774C40.3248 44.4934 39.4428 44.7514 38.4708 44.7514ZM38.4708 44.3914C39.8508 44.3914 40.5408 42.3214 40.5408 38.1814C40.5408 34.0414 39.8508 31.9714 38.4708 31.9714C37.0908 31.9714 36.4008 34.0414 36.4008 38.1814C36.4008 42.3214 37.0908 44.3914 38.4708 44.3914ZM45.0394 43.6714C45.0394 42.9634 45.1774 42.3214 45.4534 41.7454C45.7414 41.1574 46.0894 40.6474 46.4974 40.2154C46.9054 39.7834 47.4394 39.2734 48.0994 38.6854C48.7114 38.1454 49.1914 37.6954 49.5394 37.3354C49.8874 36.9634 50.1814 36.5494 50.4214 36.0934C50.6614 35.6254 50.7814 35.1214 50.7814 34.5814C50.7814 33.7894 50.5894 33.1714 50.2054 32.7274C49.8214 32.2834 49.3234 32.0614 48.7114 32.0614C48.3634 32.0614 48.0094 32.1094 47.6494 32.2054L47.2714 32.3314V35.2114L47.0374 35.2654C46.8454 35.2894 46.6834 35.3014 46.5514 35.3014C46.1434 35.3014 45.8134 35.1814 45.5614 34.9414C45.3214 34.6894 45.2014 34.3594 45.2014 33.9514C45.2014 33.5674 45.3454 33.1954 45.6334 32.8354C45.9334 32.4754 46.3714 32.1814 46.9474 31.9534C47.5354 31.7254 48.2434 31.6114 49.0714 31.6114C50.6914 31.6114 51.8914 31.9354 52.6714 32.5834C53.4514 33.2314 53.8414 34.1374 53.8414 35.3014C53.8414 36.0334 53.6494 36.6634 53.2654 37.1914C52.8934 37.7194 52.4314 38.1574 51.8794 38.5054C51.3394 38.8534 50.6134 39.2494 49.7014 39.6934C48.9334 40.0654 48.3094 40.3954 47.8294 40.6834C47.3614 40.9594 46.9234 41.2954 46.5154 41.6914C46.1194 42.0874 45.8374 42.5374 45.6694 43.0414H52.3294C52.4134 42.3934 52.6174 41.8534 52.9414 41.4214C53.0734 41.2174 53.2294 41.0374 53.4094 40.8814H53.9494V44.4814H45.0394V43.6714Z" fill="white"/>
<path d="M82.3649 41.6191V31.7491H88.4689V32.7151H83.5129V36.1591H88.1889V37.1251H83.5129V41.6191H82.3649ZM89.7441 41.6191V34.8151H90.8501V36.0331C91.2141 35.2118 91.9607 34.7591 93.0901 34.6751L93.4961 34.6331L93.5801 35.6131L92.8661 35.6971C92.2221 35.7531 91.7321 35.9585 91.3961 36.3131C91.0601 36.6585 90.8921 37.1345 90.8921 37.7411V41.6191H89.7441ZM97.7456 41.7451C96.6723 41.7451 95.8229 41.4325 95.1976 40.8071C94.5723 40.1725 94.2596 39.3138 94.2596 38.2311C94.2596 37.5311 94.3996 36.9151 94.6796 36.3831C94.9596 35.8418 95.3423 35.4265 95.8276 35.1371C96.3223 34.8385 96.8916 34.6891 97.5356 34.6891C98.4596 34.6891 99.1829 34.9878 99.7056 35.5851C100.228 36.1731 100.49 36.9851 100.49 38.0211V38.4551H95.3656C95.4029 39.2298 95.6269 39.8225 96.0376 40.2331C96.4483 40.6345 97.0176 40.8351 97.7456 40.8351C98.1563 40.8351 98.5483 40.7745 98.9216 40.6531C99.2949 40.5225 99.6496 40.3125 99.9856 40.0231L100.378 40.8211C100.07 41.1105 99.6776 41.3391 99.2016 41.5071C98.7256 41.6658 98.2403 41.7451 97.7456 41.7451ZM97.5636 35.5291C96.9196 35.5291 96.4109 35.7298 96.0376 36.1311C95.6643 36.5325 95.4449 37.0598 95.3796 37.7131H99.5096C99.4816 37.0225 99.2996 36.4858 98.9636 36.1031C98.6369 35.7205 98.1703 35.5291 97.5636 35.5291ZM105.197 41.7451C104.123 41.7451 103.274 41.4325 102.649 40.8071C102.023 40.1725 101.711 39.3138 101.711 38.2311C101.711 37.5311 101.851 36.9151 102.131 36.3831C102.411 35.8418 102.793 35.4265 103.279 35.1371C103.773 34.8385 104.343 34.6891 104.987 34.6891C105.911 34.6891 106.634 34.9878 107.157 35.5851C107.679 36.1731 107.941 36.9851 107.941 38.0211V38.4551H102.817C102.854 39.2298 103.078 39.8225 103.489 40.2331C103.899 40.6345 104.469 40.8351 105.197 40.8351C105.607 40.8351 105.999 40.7745 106.373 40.6531C106.746 40.5225 107.101 40.3125 107.437 40.0231L107.829 40.8211C107.521 41.1105 107.129 41.3391 106.653 41.5071C106.177 41.6658 105.691 41.7451 105.197 41.7451ZM105.015 35.5291C104.371 35.5291 103.862 35.7298 103.489 36.1311C103.115 36.5325 102.896 37.0598 102.831 37.7131H106.961C106.933 37.0225 106.751 36.4858 106.415 36.1031C106.088 35.7205 105.621 35.5291 105.015 35.5291ZM113.206 41.6191V34.8151H114.312V35.9631C114.517 35.5525 114.802 35.2398 115.166 35.0251C115.53 34.8011 115.954 34.6891 116.44 34.6891C117.504 34.6891 118.185 35.1511 118.484 36.0751C118.689 35.6458 118.992 35.3098 119.394 35.0671C119.795 34.8151 120.257 34.6891 120.78 34.6891C122.292 34.6891 123.048 35.5851 123.048 37.3771V41.6191H121.914V37.4331C121.914 36.8078 121.802 36.3505 121.578 36.0611C121.363 35.7625 121.004 35.6131 120.5 35.6131C119.949 35.6131 119.51 35.8091 119.184 36.2011C118.857 36.5931 118.694 37.1158 118.694 37.7691V41.6191H117.56V37.4331C117.56 36.8078 117.448 36.3505 117.224 36.0611C117.009 35.7625 116.65 35.6131 116.146 35.6131C115.586 35.6131 115.142 35.8091 114.816 36.2011C114.498 36.5931 114.34 37.1158 114.34 37.7691V41.6191H113.206ZM128.234 41.7451C127.161 41.7451 126.311 41.4325 125.686 40.8071C125.061 40.1725 124.748 39.3138 124.748 38.2311C124.748 37.5311 124.888 36.9151 125.168 36.3831C125.448 35.8418 125.831 35.4265 126.316 35.1371C126.811 34.8385 127.38 34.6891 128.024 34.6891C128.948 34.6891 129.671 34.9878 130.194 35.5851C130.717 36.1731 130.978 36.9851 130.978 38.0211V38.4551H125.854C125.891 39.2298 126.115 39.8225 126.526 40.2331C126.937 40.6345 127.506 40.8351 128.234 40.8351C128.645 40.8351 129.037 40.7745 129.41 40.6531C129.783 40.5225 130.138 40.3125 130.474 40.0231L130.866 40.8211C130.558 41.1105 130.166 41.3391 129.69 41.5071C129.214 41.6658 128.729 41.7451 128.234 41.7451ZM128.052 35.5291C127.408 35.5291 126.899 35.7298 126.526 36.1311C126.153 36.5325 125.933 37.0598 125.868 37.7131H129.998C129.97 37.0225 129.788 36.4858 129.452 36.1031C129.125 35.7205 128.659 35.5291 128.052 35.5291ZM135.349 41.7451C134.546 41.7451 133.944 41.5351 133.543 41.1151C133.142 40.6858 132.941 40.0698 132.941 39.2671V35.6971H131.611V34.8151H132.941V32.7291H134.075V34.8151H136.231V35.6971H134.075V39.1551C134.075 39.6871 134.187 40.0931 134.411 40.3731C134.635 40.6438 134.999 40.7791 135.503 40.7791C135.652 40.7791 135.802 40.7605 135.951 40.7231C136.1 40.6858 136.236 40.6485 136.357 40.6111L136.553 41.4791C136.432 41.5445 136.254 41.6051 136.021 41.6611C135.788 41.7171 135.564 41.7451 135.349 41.7451ZM140.511 41.7451C139.438 41.7451 138.589 41.4325 137.963 40.8071C137.338 40.1725 137.025 39.3138 137.025 38.2311C137.025 37.5311 137.165 36.9151 137.445 36.3831C137.725 35.8418 138.108 35.4265 138.593 35.1371C139.088 34.8385 139.657 34.6891 140.301 34.6891C141.225 34.6891 141.949 34.9878 142.471 35.5851C142.994 36.1731 143.255 36.9851 143.255 38.0211V38.4551H138.131C138.169 39.2298 138.393 39.8225 138.803 40.2331C139.214 40.6345 139.783 40.8351 140.511 40.8351C140.922 40.8351 141.314 40.7745 141.687 40.6531C142.061 40.5225 142.415 40.3125 142.751 40.0231L143.143 40.8211C142.835 41.1105 142.443 41.3391 141.967 41.5071C141.491 41.6658 141.006 41.7451 140.511 41.7451ZM140.329 35.5291C139.685 35.5291 139.177 35.7298 138.803 36.1311C138.43 36.5325 138.211 37.0598 138.145 37.7131H142.275C142.247 37.0225 142.065 36.4858 141.729 36.1031C141.403 35.7205 140.936 35.5291 140.329 35.5291ZM144.896 41.6191V34.8151H146.002V36.0331C146.366 35.2118 147.113 34.7591 148.242 34.6751L148.648 34.6331L148.732 35.6131L148.018 35.6971C147.374 35.7531 146.884 35.9585 146.548 36.3131C146.212 36.6585 146.044 37.1345 146.044 37.7411V41.6191H144.896ZM149.774 33.1211V31.8471H151.174V33.1211H149.774ZM149.914 41.6191V34.8151H151.048V41.6191H149.914ZM153.168 41.6191V34.8151H154.274V35.9771C154.498 35.5478 154.815 35.2258 155.226 35.0111C155.637 34.7965 156.099 34.6891 156.612 34.6891C158.227 34.6891 159.034 35.5851 159.034 37.3771V41.6191H157.9V37.4471C157.9 36.8125 157.774 36.3505 157.522 36.0611C157.279 35.7625 156.887 35.6131 156.346 35.6131C155.721 35.6131 155.221 35.8091 154.848 36.2011C154.484 36.5838 154.302 37.0971 154.302 37.7411V41.6191H153.168ZM164.135 44.2651C163.547 44.2651 162.992 44.1858 162.469 44.0271C161.956 43.8778 161.498 43.6491 161.097 43.3411L161.475 42.5151C161.895 42.8138 162.31 43.0285 162.721 43.1591C163.141 43.2898 163.594 43.3551 164.079 43.3551C165.423 43.3551 166.095 42.6645 166.095 41.2831V40.0791C165.899 40.5085 165.591 40.8491 165.171 41.1011C164.76 41.3438 164.289 41.4651 163.757 41.4651C163.132 41.4651 162.59 41.3205 162.133 41.0311C161.676 40.7418 161.321 40.3451 161.069 39.8411C160.826 39.3278 160.705 38.7351 160.705 38.0631C160.705 37.3911 160.826 36.8031 161.069 36.2991C161.321 35.7858 161.676 35.3891 162.133 35.1091C162.59 34.8291 163.132 34.6891 163.757 34.6891C164.289 34.6891 164.76 34.8105 165.171 35.0531C165.591 35.2958 165.899 35.6271 166.095 36.0471V34.8151H167.201V41.1291C167.201 42.1745 166.94 42.9585 166.417 43.4811C165.904 44.0038 165.143 44.2651 164.135 44.2651ZM163.967 40.5411C164.62 40.5411 165.138 40.3171 165.521 39.8691C165.904 39.4211 166.095 38.8191 166.095 38.0631C166.095 37.3071 165.904 36.7098 165.521 36.2711C165.138 35.8231 164.62 35.5991 163.967 35.5991C163.323 35.5991 162.81 35.8231 162.427 36.2711C162.044 36.7098 161.853 37.3071 161.853 38.0631C161.853 38.8191 162.044 39.4211 162.427 39.8691C162.81 40.3171 163.323 40.5411 163.967 40.5411Z" fill="#363636"/>
<defs>
<filter id="filter0_d_10642_3" x="0" y="0" width="87.7571" height="87.7568" filterUnits="userSpaceOnUse" color-interpolation-filters="sRGB">
<feFlood flood-opacity="0" result="BackgroundImageFix"/>
<feColorMatrix in="SourceAlpha" type="matrix" values="0 0 0 0 0 0 0 0 0 0 0 0 0 0 0 0 0 0 127 0" result="hardAlpha"/>
<feOffset dy="5"/>
<feGaussianBlur stdDeviation="7.5"/>
<feColorMatrix type="matrix" values="0 0 0 0 0.890196 0 0 0 0 0.721569 0 0 0 0 0.45098 0 0 0 0.15 0"/>
<feBlend mode="normal" in2="BackgroundImageFix" result="effect1_dropShadow_10642_3"/>
<feBlend mode="normal" in="SourceGraphic" in2="effect1_dropShadow_10642_3" result="shape"/>
</filter>
</defs>
</svg>
