<svg width="187" height="88" viewBox="0 0 187 88" fill="none" xmlns="http://www.w3.org/2000/svg">
<g filter="url(#filter0_d_10642_2)">
<rect x="23" y="18" width="41.7571" height="41.7571" rx="20.8785" fill="#E3B873"/>
<rect x="19" y="14" width="49.7571" height="49.7571" rx="24.8785" stroke="white" stroke-width="8"/>
</g>
<path d="M38.2361 44.1323C37.2641 44.1323 36.3821 43.8743 35.5901 43.3583C34.7981 42.8423 34.1681 42.0923 33.7001 41.1083C33.2441 40.1123 33.0161 38.9303 33.0161 37.5623C33.0161 36.1943 33.2441 35.0183 33.7001 34.0343C34.1681 33.0383 34.7981 32.2823 35.5901 31.7663C36.3821 31.2503 37.2641 30.9923 38.2361 30.9923C39.2081 30.9923 40.0901 31.2503 40.8821 31.7663C41.6741 32.2823 42.2981 33.0383 42.7541 34.0343C43.2221 35.0183 43.4561 36.1943 43.4561 37.5623C43.4561 38.9303 43.2221 40.1123 42.7541 41.1083C42.2981 42.0923 41.6741 42.8423 40.8821 43.3583C40.0901 43.8743 39.2081 44.1323 38.2361 44.1323ZM38.2361 43.7723C39.6161 43.7723 40.3061 41.7023 40.3061 37.5623C40.3061 33.4223 39.6161 31.3523 38.2361 31.3523C36.8561 31.3523 36.1661 33.4223 36.1661 37.5623C36.1661 41.7023 36.8561 43.7723 38.2361 43.7723ZM48.5846 44.1323C47.7566 44.1323 47.0486 44.0183 46.4606 43.7903C45.8846 43.5623 45.4466 43.2683 45.1466 42.9083C44.8586 42.5483 44.7146 42.1763 44.7146 41.7923C44.7146 41.3843 44.8346 41.0603 45.0746 40.8203C45.3266 40.5683 45.6566 40.4423 46.0646 40.4423C46.1606 40.4423 46.2566 40.4543 46.3526 40.4783C46.4486 40.4903 46.5146 40.4963 46.5506 40.4963L46.7846 40.5323V43.4123C46.7966 43.4123 46.9226 43.4603 47.1626 43.5563C47.4746 43.6403 47.8286 43.6823 48.2246 43.6823C49.0646 43.6823 49.7066 43.4303 50.1506 42.9263C50.6066 42.4103 50.8346 41.6423 50.8346 40.6223C50.8346 39.5783 50.6126 38.7923 50.1686 38.2643C49.7366 37.7363 49.1486 37.4723 48.4046 37.4723H47.5046V37.0223H48.4046C48.9446 37.0223 49.3946 36.7823 49.7546 36.3023C50.1146 35.8223 50.2946 35.1323 50.2946 34.2323C50.2946 33.3323 50.1086 32.6423 49.7366 32.1623C49.3646 31.6823 48.8906 31.4423 48.3146 31.4423C48.0026 31.4423 47.7026 31.4903 47.4146 31.5863C47.3786 31.5983 47.2586 31.6403 47.0546 31.7123V34.5923L46.8206 34.6463C46.6286 34.6703 46.4666 34.6823 46.3346 34.6823C45.9266 34.6823 45.5966 34.5623 45.3446 34.3223C45.1046 34.0703 44.9846 33.7403 44.9846 33.3323C44.9846 32.9603 45.1286 32.5943 45.4166 32.2343C45.7046 31.8743 46.1246 31.5803 46.6766 31.3523C47.2406 31.1123 47.9066 30.9923 48.6746 30.9923C49.6826 30.9923 50.5346 31.1423 51.2306 31.4423C51.9386 31.7303 52.4666 32.1203 52.8146 32.6123C53.1746 33.1043 53.3546 33.6443 53.3546 34.2323C53.3546 34.9163 53.1806 35.4623 52.8326 35.8703C52.4846 36.2663 52.0286 36.5843 51.4646 36.8243C50.9126 37.0403 50.2826 37.1663 49.5746 37.2023V37.2923C50.3666 37.3283 51.0866 37.4663 51.7346 37.7063C53.1746 38.2823 53.8946 39.2543 53.8946 40.6223C53.8946 41.6783 53.4566 42.5303 52.5806 43.1783C51.7166 43.8143 50.3846 44.1323 48.5846 44.1323Z" fill="white"/>
<path d="M80.218 43V33.13H86.322V34.096H81.366V37.54H86.042V38.506H81.366V43H80.218ZM87.5972 43V36.196H88.7032V37.414C89.0672 36.5927 89.8139 36.14 90.9432 36.056L91.3492 36.014L91.4332 36.994L90.7192 37.078C90.0752 37.134 89.5852 37.3393 89.2492 37.694C88.9132 38.0393 88.7452 38.5153 88.7452 39.122V43H87.5972ZM95.5988 43.126C94.5254 43.126 93.6761 42.8133 93.0508 42.188C92.4254 41.5533 92.1128 40.6947 92.1128 39.612C92.1128 38.912 92.2528 38.296 92.5328 37.764C92.8128 37.2227 93.1954 36.8073 93.6808 36.518C94.1754 36.2193 94.7448 36.07 95.3888 36.07C96.3128 36.07 97.0361 36.3687 97.5588 36.966C98.0814 37.554 98.3428 38.366 98.3428 39.402V39.836H93.2188C93.2561 40.6107 93.4801 41.2033 93.8908 41.614C94.3014 42.0153 94.8708 42.216 95.5988 42.216C96.0094 42.216 96.4014 42.1553 96.7748 42.034C97.1481 41.9033 97.5028 41.6933 97.8388 41.404L98.2308 42.202C97.9228 42.4913 97.5308 42.72 97.0548 42.888C96.5788 43.0467 96.0934 43.126 95.5988 43.126ZM95.4168 36.91C94.7728 36.91 94.2641 37.1107 93.8908 37.512C93.5174 37.9133 93.2981 38.4407 93.2328 39.094H97.3628C97.3348 38.4033 97.1528 37.8667 96.8168 37.484C96.4901 37.1013 96.0234 36.91 95.4168 36.91ZM103.05 43.126C101.977 43.126 101.127 42.8133 100.502 42.188C99.8766 41.5533 99.5639 40.6947 99.5639 39.612C99.5639 38.912 99.7039 38.296 99.9839 37.764C100.264 37.2227 100.647 36.8073 101.132 36.518C101.627 36.2193 102.196 36.07 102.84 36.07C103.764 36.07 104.487 36.3687 105.01 36.966C105.533 37.554 105.794 38.366 105.794 39.402V39.836H100.67C100.707 40.6107 100.931 41.2033 101.342 41.614C101.753 42.0153 102.322 42.216 103.05 42.216C103.461 42.216 103.853 42.1553 104.226 42.034C104.599 41.9033 104.954 41.6933 105.29 41.404L105.682 42.202C105.374 42.4913 104.982 42.72 104.506 42.888C104.03 43.0467 103.545 43.126 103.05 43.126ZM102.868 36.91C102.224 36.91 101.715 37.1107 101.342 37.512C100.969 37.9133 100.749 38.4407 100.684 39.094H104.814C104.786 38.4033 104.604 37.8667 104.268 37.484C103.941 37.1013 103.475 36.91 102.868 36.91ZM113.915 43.126C113.233 43.126 112.645 42.9813 112.151 42.692C111.656 42.3933 111.273 41.978 111.003 41.446C110.741 40.9047 110.611 40.2747 110.611 39.556C110.611 38.4733 110.905 37.624 111.493 37.008C112.081 36.3827 112.888 36.07 113.915 36.07C114.335 36.07 114.75 36.1447 115.161 36.294C115.571 36.4433 115.912 36.6533 116.183 36.924L115.791 37.75C115.52 37.4887 115.221 37.2973 114.895 37.176C114.577 37.0547 114.274 36.994 113.985 36.994C113.275 36.994 112.729 37.218 112.347 37.666C111.964 38.1047 111.773 38.7393 111.773 39.57C111.773 40.382 111.964 41.026 112.347 41.502C112.729 41.9687 113.275 42.202 113.985 42.202C114.274 42.202 114.577 42.1413 114.895 42.02C115.221 41.8987 115.52 41.7027 115.791 41.432L116.183 42.258C115.912 42.5287 115.567 42.7433 115.147 42.902C114.736 43.0513 114.325 43.126 113.915 43.126ZM120.203 43.126C119.54 43.126 118.966 42.9813 118.481 42.692C117.995 42.4027 117.617 41.9967 117.347 41.474C117.085 40.942 116.955 40.3167 116.955 39.598C116.955 38.8793 117.085 38.2587 117.347 37.736C117.617 37.204 117.995 36.7933 118.481 36.504C118.966 36.2147 119.54 36.07 120.203 36.07C120.856 36.07 121.425 36.2147 121.911 36.504C122.405 36.7933 122.783 37.204 123.045 37.736C123.315 38.2587 123.451 38.8793 123.451 39.598C123.451 40.3167 123.315 40.942 123.045 41.474C122.783 41.9967 122.405 42.4027 121.911 42.692C121.425 42.9813 120.856 43.126 120.203 43.126ZM120.203 42.216C120.837 42.216 121.346 41.992 121.729 41.544C122.111 41.0867 122.303 40.438 122.303 39.598C122.303 38.7487 122.111 38.1 121.729 37.652C121.346 37.204 120.837 36.98 120.203 36.98C119.559 36.98 119.045 37.204 118.663 37.652C118.289 38.1 118.103 38.7487 118.103 39.598C118.103 40.438 118.289 41.0867 118.663 41.544C119.045 41.992 119.559 42.216 120.203 42.216ZM125.154 43V36.196H126.26V37.358C126.484 36.9287 126.801 36.6067 127.212 36.392C127.623 36.1773 128.085 36.07 128.598 36.07C130.213 36.07 131.02 36.966 131.02 38.758V43H129.886V38.828C129.886 38.1933 129.76 37.7313 129.508 37.442C129.265 37.1433 128.873 36.994 128.332 36.994C127.707 36.994 127.207 37.19 126.834 37.582C126.47 37.9647 126.288 38.478 126.288 39.122V43H125.154ZM135.407 43.126C134.875 43.126 134.371 43.0513 133.895 42.902C133.419 42.7527 133.027 42.5427 132.719 42.272L133.083 41.474C133.419 41.7447 133.788 41.9453 134.189 42.076C134.6 42.1973 135.015 42.258 135.435 42.258C135.967 42.258 136.368 42.16 136.639 41.964C136.91 41.768 137.045 41.502 137.045 41.166C137.045 40.9047 136.956 40.6993 136.779 40.55C136.602 40.3913 136.322 40.27 135.939 40.186L134.665 39.906C133.508 39.654 132.929 39.0567 132.929 38.114C132.929 37.498 133.172 37.0033 133.657 36.63C134.152 36.2567 134.796 36.07 135.589 36.07C136.056 36.07 136.499 36.1447 136.919 36.294C137.348 36.434 137.703 36.644 137.983 36.924L137.605 37.722C137.334 37.47 137.017 37.2787 136.653 37.148C136.298 37.008 135.944 36.938 135.589 36.938C135.066 36.938 134.67 37.0407 134.399 37.246C134.128 37.4513 133.993 37.722 133.993 38.058C133.993 38.5807 134.338 38.9167 135.029 39.066L136.303 39.332C136.9 39.4627 137.353 39.6727 137.661 39.962C137.969 40.242 138.123 40.6247 138.123 41.11C138.123 41.7353 137.876 42.23 137.381 42.594C136.886 42.9487 136.228 43.126 135.407 43.126ZM142.259 43.126C140.626 43.126 139.809 42.2253 139.809 40.424V36.196H140.943V40.41C140.943 41.0167 141.064 41.4647 141.307 41.754C141.559 42.0433 141.951 42.188 142.483 42.188C143.062 42.188 143.533 41.9967 143.897 41.614C144.261 41.222 144.443 40.704 144.443 40.06V36.196H145.577V43H144.471V41.852C144.256 42.2627 143.953 42.58 143.561 42.804C143.178 43.0187 142.744 43.126 142.259 43.126ZM149.785 43.126C149.094 43.126 148.571 42.9253 148.217 42.524C147.871 42.1133 147.699 41.5207 147.699 40.746V33.13H148.833V40.662C148.833 41.6607 149.229 42.16 150.023 42.16C150.256 42.16 150.466 42.132 150.653 42.076L150.625 43.028C150.335 43.0933 150.055 43.126 149.785 43.126ZM154.448 43.126C153.646 43.126 153.044 42.916 152.642 42.496C152.241 42.0667 152.04 41.4507 152.04 40.648V37.078H150.71V36.196H152.04V34.11H153.174V36.196H155.33V37.078H153.174V40.536C153.174 41.068 153.286 41.474 153.51 41.754C153.734 42.0247 154.098 42.16 154.602 42.16C154.752 42.16 154.901 42.1413 155.05 42.104C155.2 42.0667 155.335 42.0293 155.456 41.992L155.652 42.86C155.531 42.9253 155.354 42.986 155.12 43.042C154.887 43.098 154.663 43.126 154.448 43.126ZM158.755 43.126C158.288 43.126 157.868 43.0373 157.495 42.86C157.131 42.6733 156.841 42.4213 156.627 42.104C156.412 41.7867 156.305 41.432 156.305 41.04C156.305 40.5453 156.431 40.1533 156.683 39.864C156.944 39.5747 157.369 39.3693 157.957 39.248C158.554 39.1173 159.366 39.052 160.393 39.052H160.841V38.618C160.841 38.0393 160.719 37.624 160.477 37.372C160.243 37.1107 159.865 36.98 159.343 36.98C158.932 36.98 158.535 37.0407 158.153 37.162C157.77 37.274 157.378 37.4607 156.977 37.722L156.585 36.896C156.939 36.644 157.369 36.4433 157.873 36.294C158.386 36.1447 158.876 36.07 159.343 36.07C160.22 36.07 160.869 36.2847 161.289 36.714C161.718 37.1433 161.933 37.8107 161.933 38.716V43H160.869V41.824C160.691 42.2253 160.416 42.5427 160.043 42.776C159.679 43.0093 159.249 43.126 158.755 43.126ZM158.937 42.272C159.497 42.272 159.954 42.0807 160.309 41.698C160.663 41.306 160.841 40.8113 160.841 40.214V39.794H160.407C159.651 39.794 159.053 39.8313 158.615 39.906C158.185 39.9713 157.882 40.0927 157.705 40.27C157.537 40.438 157.453 40.6713 157.453 40.97C157.453 41.3527 157.583 41.6653 157.845 41.908C158.115 42.1507 158.479 42.272 158.937 42.272ZM166.767 43.126C165.964 43.126 165.362 42.916 164.961 42.496C164.559 42.0667 164.359 41.4507 164.359 40.648V37.078H163.029V36.196H164.359V34.11H165.493V36.196H167.649V37.078H165.493V40.536C165.493 41.068 165.605 41.474 165.829 41.754C166.053 42.0247 166.417 42.16 166.921 42.16C167.07 42.16 167.219 42.1413 167.369 42.104C167.518 42.0667 167.653 42.0293 167.775 41.992L167.971 42.86C167.849 42.9253 167.672 42.986 167.439 43.042C167.205 43.098 166.981 43.126 166.767 43.126ZM168.791 34.502V33.228H170.191V34.502H168.791ZM168.931 43V36.196H170.065V43H168.931ZM175.013 43.126C174.35 43.126 173.776 42.9813 173.291 42.692C172.806 42.4027 172.428 41.9967 172.157 41.474C171.896 40.942 171.765 40.3167 171.765 39.598C171.765 38.8793 171.896 38.2587 172.157 37.736C172.428 37.204 172.806 36.7933 173.291 36.504C173.776 36.2147 174.35 36.07 175.013 36.07C175.666 36.07 176.236 36.2147 176.721 36.504C177.216 36.7933 177.594 37.204 177.855 37.736C178.126 38.2587 178.261 38.8793 178.261 39.598C178.261 40.3167 178.126 40.942 177.855 41.474C177.594 41.9967 177.216 42.4027 176.721 42.692C176.236 42.9813 175.666 43.126 175.013 43.126ZM175.013 42.216C175.648 42.216 176.156 41.992 176.539 41.544C176.922 41.0867 177.113 40.438 177.113 39.598C177.113 38.7487 176.922 38.1 176.539 37.652C176.156 37.204 175.648 36.98 175.013 36.98C174.369 36.98 173.856 37.204 173.473 37.652C173.1 38.1 172.913 38.7487 172.913 39.598C172.913 40.438 173.1 41.0867 173.473 41.544C173.856 41.992 174.369 42.216 175.013 42.216ZM179.964 43V36.196H181.07V37.358C181.294 36.9287 181.612 36.6067 182.022 36.392C182.433 36.1773 182.895 36.07 183.408 36.07C185.023 36.07 185.83 36.966 185.83 38.758V43H184.696V38.828C184.696 38.1933 184.57 37.7313 184.318 37.442C184.076 37.1433 183.684 36.994 183.142 36.994C182.517 36.994 182.018 37.19 181.644 37.582C181.28 37.9647 181.098 38.478 181.098 39.122V43H179.964Z" fill="#363636"/>
<defs>
<filter id="filter0_d_10642_2" x="0" y="0" width="87.7571" height="87.7568" filterUnits="userSpaceOnUse" color-interpolation-filters="sRGB">
<feFlood flood-opacity="0" result="BackgroundImageFix"/>
<feColorMatrix in="SourceAlpha" type="matrix" values="0 0 0 0 0 0 0 0 0 0 0 0 0 0 0 0 0 0 127 0" result="hardAlpha"/>
<feOffset dy="5"/>
<feGaussianBlur stdDeviation="7.5"/>
<feColorMatrix type="matrix" values="0 0 0 0 0.890196 0 0 0 0 0.721569 0 0 0 0 0.45098 0 0 0 0.15 0"/>
<feBlend mode="normal" in2="BackgroundImageFix" result="effect1_dropShadow_10642_2"/>
<feBlend mode="normal" in="SourceGraphic" in2="effect1_dropShadow_10642_2" result="shape"/>
</filter>
</defs>
</svg>
