<svg width="402" height="88" viewBox="0 0 402 88" fill="none" xmlns="http://www.w3.org/2000/svg">
<path d="M87.1694 32.2637C86.2547 32.2637 85.4567 32.0584 84.7754 31.6477C84.1034 31.2277 83.5807 30.6397 83.2074 29.8837C82.8434 29.1277 82.6614 28.2317 82.6614 27.1957C82.6614 26.1597 82.8434 25.2637 83.2074 24.5077C83.5714 23.7517 84.0894 23.1684 84.7614 22.7577C85.4427 22.347 86.2454 22.1417 87.1694 22.1417C88.1027 22.1417 88.9054 22.347 89.5774 22.7577C90.2587 23.1684 90.7814 23.7517 91.1454 24.5077C91.5187 25.2544 91.7054 26.1457 91.7054 27.1817C91.7054 28.2177 91.5187 29.1184 91.1454 29.8837C90.772 30.6397 90.2447 31.2277 89.5634 31.6477C88.8914 32.0584 88.0934 32.2637 87.1694 32.2637ZM87.1694 31.2417C88.224 31.2417 89.0407 30.887 89.6194 30.1777C90.198 29.4684 90.4874 28.4744 90.4874 27.1957C90.4874 25.917 90.198 24.9277 89.6194 24.2277C89.0407 23.5184 88.224 23.1637 87.1694 23.1637C86.1334 23.1637 85.326 23.5184 84.7474 24.2277C84.1687 24.9277 83.8794 25.917 83.8794 27.1957C83.8794 28.465 84.1687 29.459 84.7474 30.1777C85.326 30.887 86.1334 31.2417 87.1694 31.2417ZM96.0118 32.2637C94.3785 32.2637 93.5618 31.363 93.5618 29.5617V25.3337H94.6958V29.5477C94.6958 30.1544 94.8171 30.6024 95.0598 30.8917C95.3118 31.181 95.7038 31.3257 96.2358 31.3257C96.8145 31.3257 97.2858 31.1344 97.6498 30.7517C98.0138 30.3597 98.1958 29.8417 98.1958 29.1977V25.3337H99.3298V32.1377H98.2238V30.9897C98.0091 31.4004 97.7058 31.7177 97.3138 31.9417C96.9311 32.1564 96.4971 32.2637 96.0118 32.2637ZM101.451 32.1377V25.3337H102.557V26.5517C102.921 25.7304 103.668 25.2777 104.797 25.1937L105.203 25.1517L105.287 26.1317L104.573 26.2157C103.929 26.2717 103.439 26.477 103.103 26.8317C102.767 27.177 102.599 27.653 102.599 28.2597V32.1377H101.451ZM112.361 32.2637C111.829 32.2637 111.325 32.189 110.849 32.0397C110.373 31.8904 109.981 31.6804 109.673 31.4097L110.037 30.6117C110.373 30.8824 110.741 31.083 111.143 31.2137C111.553 31.335 111.969 31.3957 112.389 31.3957C112.921 31.3957 113.322 31.2977 113.593 31.1017C113.863 30.9057 113.999 30.6397 113.999 30.3037C113.999 30.0424 113.91 29.837 113.733 29.6877C113.555 29.529 113.275 29.4077 112.893 29.3237L111.619 29.0437C110.461 28.7917 109.883 28.1944 109.883 27.2517C109.883 26.6357 110.125 26.141 110.611 25.7677C111.105 25.3944 111.749 25.2077 112.543 25.2077C113.009 25.2077 113.453 25.2824 113.873 25.4317C114.302 25.5717 114.657 25.7817 114.937 26.0617L114.559 26.8597C114.288 26.6077 113.971 26.4164 113.607 26.2857C113.252 26.1457 112.897 26.0757 112.543 26.0757C112.02 26.0757 111.623 26.1784 111.353 26.3837C111.082 26.589 110.947 26.8597 110.947 27.1957C110.947 27.7184 111.292 28.0544 111.983 28.2037L113.257 28.4697C113.854 28.6004 114.307 28.8104 114.615 29.0997C114.923 29.3797 115.077 29.7624 115.077 30.2477C115.077 30.873 114.829 31.3677 114.335 31.7317C113.84 32.0864 113.182 32.2637 112.361 32.2637ZM116.805 34.6577V25.3337H117.911V26.5517C118.116 26.1317 118.42 25.805 118.821 25.5717C119.232 25.329 119.708 25.2077 120.249 25.2077C120.856 25.2077 121.383 25.3524 121.831 25.6417C122.288 25.9217 122.638 26.3277 122.881 26.8597C123.133 27.3824 123.259 28.0077 123.259 28.7357C123.259 29.4544 123.133 30.0797 122.881 30.6117C122.638 31.1344 122.288 31.5404 121.831 31.8297C121.383 32.119 120.856 32.2637 120.249 32.2637C119.726 32.2637 119.26 32.147 118.849 31.9137C118.438 31.6804 118.135 31.3584 117.939 30.9477V34.6577H116.805ZM120.011 31.3537C120.646 31.3537 121.154 31.1297 121.537 30.6817C121.92 30.2244 122.111 29.5757 122.111 28.7357C122.111 27.8864 121.92 27.2377 121.537 26.7897C121.154 26.3417 120.646 26.1177 120.011 26.1177C119.376 26.1177 118.868 26.3417 118.485 26.7897C118.102 27.2377 117.911 27.8864 117.911 28.7357C117.911 29.5757 118.102 30.2244 118.485 30.6817C118.868 31.1297 119.376 31.3537 120.011 31.3537ZM128.033 32.2637C126.96 32.2637 126.11 31.951 125.485 31.3257C124.86 30.691 124.547 29.8324 124.547 28.7497C124.547 28.0497 124.687 27.4337 124.967 26.9017C125.247 26.3604 125.63 25.945 126.115 25.6557C126.61 25.357 127.179 25.2077 127.823 25.2077C128.747 25.2077 129.47 25.5064 129.993 26.1037C130.516 26.6917 130.777 27.5037 130.777 28.5397V28.9737H125.653C125.69 29.7484 125.914 30.341 126.325 30.7517C126.736 31.153 127.305 31.3537 128.033 31.3537C128.444 31.3537 128.836 31.293 129.209 31.1717C129.582 31.041 129.937 30.831 130.273 30.5417L130.665 31.3397C130.357 31.629 129.965 31.8577 129.489 32.0257C129.013 32.1844 128.528 32.2637 128.033 32.2637ZM127.851 26.0477C127.207 26.0477 126.698 26.2484 126.325 26.6497C125.952 27.051 125.732 27.5784 125.667 28.2317H129.797C129.769 27.541 129.587 27.0044 129.251 26.6217C128.924 26.239 128.458 26.0477 127.851 26.0477ZM135.302 32.2637C134.621 32.2637 134.033 32.119 133.538 31.8297C133.044 31.531 132.661 31.1157 132.39 30.5837C132.129 30.0424 131.998 29.4124 131.998 28.6937C131.998 27.611 132.292 26.7617 132.88 26.1457C133.468 25.5204 134.276 25.2077 135.302 25.2077C135.722 25.2077 136.138 25.2824 136.548 25.4317C136.959 25.581 137.3 25.791 137.57 26.0617L137.178 26.8877C136.908 26.6264 136.609 26.435 136.282 26.3137C135.965 26.1924 135.662 26.1317 135.372 26.1317C134.663 26.1317 134.117 26.3557 133.734 26.8037C133.352 27.2424 133.16 27.877 133.16 28.7077C133.16 29.5197 133.352 30.1637 133.734 30.6397C134.117 31.1064 134.663 31.3397 135.372 31.3397C135.662 31.3397 135.965 31.279 136.282 31.1577C136.609 31.0364 136.908 30.8404 137.178 30.5697L137.57 31.3957C137.3 31.6664 136.954 31.881 136.534 32.0397C136.124 32.189 135.713 32.2637 135.302 32.2637ZM138.759 23.6397V22.3657H140.159V23.6397H138.759ZM138.899 32.1377V25.3337H140.033V32.1377H138.899ZM144.295 32.2637C143.828 32.2637 143.408 32.175 143.035 31.9977C142.671 31.811 142.381 31.559 142.167 31.2417C141.952 30.9244 141.845 30.5697 141.845 30.1777C141.845 29.683 141.971 29.291 142.223 29.0017C142.484 28.7124 142.909 28.507 143.497 28.3857C144.094 28.255 144.906 28.1897 145.933 28.1897H146.381V27.7557C146.381 27.177 146.259 26.7617 146.017 26.5097C145.783 26.2484 145.405 26.1177 144.883 26.1177C144.472 26.1177 144.075 26.1784 143.693 26.2997C143.31 26.4117 142.918 26.5984 142.517 26.8597L142.125 26.0337C142.479 25.7817 142.909 25.581 143.413 25.4317C143.926 25.2824 144.416 25.2077 144.883 25.2077C145.76 25.2077 146.409 25.4224 146.829 25.8517C147.258 26.281 147.473 26.9484 147.473 27.8537V32.1377H146.409V30.9617C146.231 31.363 145.956 31.6804 145.583 31.9137C145.219 32.147 144.789 32.2637 144.295 32.2637ZM144.477 31.4097C145.037 31.4097 145.494 31.2184 145.849 30.8357C146.203 30.4437 146.381 29.949 146.381 29.3517V28.9317H145.947C145.191 28.9317 144.593 28.969 144.155 29.0437C143.725 29.109 143.422 29.2304 143.245 29.4077C143.077 29.5757 142.993 29.809 142.993 30.1077C142.993 30.4904 143.123 30.803 143.385 31.0457C143.655 31.2884 144.019 31.4097 144.477 31.4097ZM151.662 32.2637C150.972 32.2637 150.449 32.063 150.094 31.6617C149.749 31.251 149.576 30.6584 149.576 29.8837V22.2677H150.71V29.7997C150.71 30.7984 151.107 31.2977 151.9 31.2977C152.134 31.2977 152.344 31.2697 152.53 31.2137L152.502 32.1657C152.213 32.231 151.933 32.2637 151.662 32.2637ZM153.579 23.6397V22.3657H154.979V23.6397H153.579ZM153.719 32.1377V25.3337H154.853V32.1377H153.719ZM159.269 32.2637C158.737 32.2637 158.233 32.189 157.757 32.0397C157.281 31.8904 156.889 31.6804 156.581 31.4097L156.945 30.6117C157.281 30.8824 157.65 31.083 158.051 31.2137C158.462 31.335 158.877 31.3957 159.297 31.3957C159.829 31.3957 160.23 31.2977 160.501 31.1017C160.772 30.9057 160.907 30.6397 160.907 30.3037C160.907 30.0424 160.818 29.837 160.641 29.6877C160.464 29.529 160.184 29.4077 159.801 29.3237L158.527 29.0437C157.37 28.7917 156.791 28.1944 156.791 27.2517C156.791 26.6357 157.034 26.141 157.519 25.7677C158.014 25.3944 158.658 25.2077 159.451 25.2077C159.918 25.2077 160.361 25.2824 160.781 25.4317C161.21 25.5717 161.565 25.7817 161.845 26.0617L161.467 26.8597C161.196 26.6077 160.879 26.4164 160.515 26.2857C160.16 26.1457 159.806 26.0757 159.451 26.0757C158.928 26.0757 158.532 26.1784 158.261 26.3837C157.99 26.589 157.855 26.8597 157.855 27.1957C157.855 27.7184 158.2 28.0544 158.891 28.2037L160.165 28.4697C160.762 28.6004 161.215 28.8104 161.523 29.0997C161.831 29.3797 161.985 29.7624 161.985 30.2477C161.985 30.873 161.738 31.3677 161.243 31.7317C160.748 32.0864 160.09 32.2637 159.269 32.2637ZM166.375 32.2637C165.572 32.2637 164.97 32.0537 164.569 31.6337C164.167 31.2044 163.967 30.5884 163.967 29.7857V26.2157H162.637V25.3337H163.967V23.2477H165.101V25.3337H167.257V26.2157H165.101V29.6737C165.101 30.2057 165.213 30.6117 165.437 30.8917C165.661 31.1624 166.025 31.2977 166.529 31.2977C166.678 31.2977 166.827 31.279 166.977 31.2417C167.126 31.2044 167.261 31.167 167.383 31.1297L167.579 31.9977C167.457 32.063 167.28 32.1237 167.047 32.1797C166.813 32.2357 166.589 32.2637 166.375 32.2637ZM173.941 32.1377L171.407 25.3337H172.597L174.515 30.8077L176.503 25.3337H177.469L179.429 30.8217L181.375 25.3337H182.509L179.961 32.1377H178.883L176.965 26.8597L175.033 32.1377H173.941ZM183.767 23.6397V22.3657H185.167V23.6397H183.767ZM183.907 32.1377V25.3337H185.041V32.1377H183.907ZM189.246 32.2637C188.556 32.2637 188.033 32.063 187.678 31.6617C187.333 31.251 187.16 30.6584 187.16 29.8837V22.2677H188.294V29.7997C188.294 30.7984 188.691 31.2977 189.484 31.2977C189.718 31.2977 189.928 31.2697 190.114 31.2137L190.086 32.1657C189.797 32.231 189.517 32.2637 189.246 32.2637ZM193.389 32.2637C192.698 32.2637 192.176 32.063 191.821 31.6617C191.476 31.251 191.303 30.6584 191.303 29.8837V22.2677H192.437V29.7997C192.437 30.7984 192.834 31.2977 193.627 31.2977C193.86 31.2977 194.07 31.2697 194.257 31.2137L194.229 32.1657C193.94 32.231 193.66 32.2637 193.389 32.2637ZM201.183 32.2637C200.717 32.2637 200.297 32.175 199.923 31.9977C199.559 31.811 199.27 31.559 199.055 31.2417C198.841 30.9244 198.733 30.5697 198.733 30.1777C198.733 29.683 198.859 29.291 199.111 29.0017C199.373 28.7124 199.797 28.507 200.385 28.3857C200.983 28.255 201.795 28.1897 202.821 28.1897H203.269V27.7557C203.269 27.177 203.148 26.7617 202.905 26.5097C202.672 26.2484 202.294 26.1177 201.771 26.1177C201.361 26.1177 200.964 26.1784 200.581 26.2997C200.199 26.4117 199.807 26.5984 199.405 26.8597L199.013 26.0337C199.368 25.7817 199.797 25.581 200.301 25.4317C200.815 25.2824 201.305 25.2077 201.771 25.2077C202.649 25.2077 203.297 25.4224 203.717 25.8517C204.147 26.281 204.361 26.9484 204.361 27.8537V32.1377H203.297V30.9617C203.12 31.363 202.845 31.6804 202.471 31.9137C202.107 32.147 201.678 32.2637 201.183 32.2637ZM201.365 31.4097C201.925 31.4097 202.383 31.2184 202.737 30.8357C203.092 30.4437 203.269 29.949 203.269 29.3517V28.9317H202.835C202.079 28.9317 201.482 28.969 201.043 29.0437C200.614 29.109 200.311 29.2304 200.133 29.4077C199.965 29.5757 199.881 29.809 199.881 30.1077C199.881 30.4904 200.012 30.803 200.273 31.0457C200.544 31.2884 200.908 31.4097 201.365 31.4097ZM206.465 32.1377V25.3337H207.571V26.5517C207.935 25.7304 208.682 25.2777 209.811 25.1937L210.217 25.1517L210.301 26.1317L209.587 26.2157C208.943 26.2717 208.453 26.477 208.117 26.8317C207.781 27.177 207.613 27.653 207.613 28.2597V32.1377H206.465ZM211.483 32.1377V25.3337H212.589V26.5517C212.953 25.7304 213.699 25.2777 214.829 25.1937L215.235 25.1517L215.319 26.1317L214.605 26.2157C213.961 26.2717 213.471 26.477 213.135 26.8317C212.799 27.177 212.631 27.653 212.631 28.2597V32.1377H211.483ZM216.36 23.6397V22.3657H217.76V23.6397H216.36ZM216.5 32.1377V25.3337H217.634V32.1377H216.5ZM221.756 32.1377L218.83 25.3337H220.062L222.316 30.8497L224.598 25.3337H225.76L222.82 32.1377H221.756ZM229.93 32.2637C228.856 32.2637 228.007 31.951 227.382 31.3257C226.756 30.691 226.444 29.8324 226.444 28.7497C226.444 28.0497 226.584 27.4337 226.864 26.9017C227.144 26.3604 227.526 25.945 228.012 25.6557C228.506 25.357 229.076 25.2077 229.72 25.2077C230.644 25.2077 231.367 25.5064 231.89 26.1037C232.412 26.6917 232.674 27.5037 232.674 28.5397V28.9737H227.55C227.587 29.7484 227.811 30.341 228.222 30.7517C228.632 31.153 229.202 31.3537 229.93 31.3537C230.34 31.3537 230.732 31.293 231.106 31.1717C231.479 31.041 231.834 30.831 232.17 30.5417L232.562 31.3397C232.254 31.629 231.862 31.8577 231.386 32.0257C230.91 32.1844 230.424 32.2637 229.93 32.2637ZM229.748 26.0477C229.104 26.0477 228.595 26.2484 228.222 26.6497C227.848 27.051 227.629 27.5784 227.564 28.2317H231.694C231.666 27.541 231.484 27.0044 231.148 26.6217C230.821 26.239 230.354 26.0477 229.748 26.0477ZM238.274 32.1377V26.2157H236.93V25.3337H238.274V25.0957C238.274 24.1904 238.498 23.5044 238.946 23.0377C239.404 22.571 240.104 22.3097 241.046 22.2537L241.592 22.2257L241.69 23.0937L241.046 23.1357C240.468 23.1824 240.048 23.355 239.786 23.6537C239.534 23.9524 239.408 24.3864 239.408 24.9557V25.3337H241.368V26.2157H239.408V32.1377H238.274ZM245.209 32.2637C244.546 32.2637 243.972 32.119 243.487 31.8297C243.002 31.5404 242.624 31.1344 242.353 30.6117C242.092 30.0797 241.961 29.4544 241.961 28.7357C241.961 28.017 242.092 27.3964 242.353 26.8737C242.624 26.3417 243.002 25.931 243.487 25.6417C243.972 25.3524 244.546 25.2077 245.209 25.2077C245.862 25.2077 246.432 25.3524 246.917 25.6417C247.412 25.931 247.79 26.3417 248.051 26.8737C248.322 27.3964 248.457 28.017 248.457 28.7357C248.457 29.4544 248.322 30.0797 248.051 30.6117C247.79 31.1344 247.412 31.5404 246.917 31.8297C246.432 32.119 245.862 32.2637 245.209 32.2637ZM245.209 31.3537C245.844 31.3537 246.352 31.1297 246.735 30.6817C247.118 30.2244 247.309 29.5757 247.309 28.7357C247.309 27.8864 247.118 27.2377 246.735 26.7897C246.352 26.3417 245.844 26.1177 245.209 26.1177C244.565 26.1177 244.052 26.3417 243.669 26.7897C243.296 27.2377 243.109 27.8864 243.109 28.7357C243.109 29.5757 243.296 30.2244 243.669 30.6817C244.052 31.1297 244.565 31.3537 245.209 31.3537ZM250.16 32.1377V25.3337H251.266V26.5517C251.63 25.7304 252.377 25.2777 253.506 25.1937L253.912 25.1517L253.996 26.1317L253.282 26.2157C252.638 26.2717 252.148 26.477 251.812 26.8317C251.476 27.177 251.308 27.653 251.308 28.2597V32.1377H250.16ZM258.802 32.1377V25.3337H259.908V26.4817C260.113 26.071 260.398 25.7584 260.762 25.5437C261.126 25.3197 261.55 25.2077 262.036 25.2077C263.1 25.2077 263.781 25.6697 264.08 26.5937C264.285 26.1644 264.588 25.8284 264.99 25.5857C265.391 25.3337 265.853 25.2077 266.376 25.2077C267.888 25.2077 268.644 26.1037 268.644 27.8957V32.1377H267.51V27.9517C267.51 27.3264 267.398 26.869 267.174 26.5797C266.959 26.281 266.6 26.1317 266.096 26.1317C265.545 26.1317 265.106 26.3277 264.78 26.7197C264.453 27.1117 264.29 27.6344 264.29 28.2877V32.1377H263.156V27.9517C263.156 27.3264 263.044 26.869 262.82 26.5797C262.605 26.281 262.246 26.1317 261.742 26.1317C261.182 26.1317 260.738 26.3277 260.412 26.7197C260.094 27.1117 259.936 27.6344 259.936 28.2877V32.1377H258.802ZM273.83 32.2637C272.757 32.2637 271.907 31.951 271.282 31.3257C270.657 30.691 270.344 29.8324 270.344 28.7497C270.344 28.0497 270.484 27.4337 270.764 26.9017C271.044 26.3604 271.427 25.945 271.912 25.6557C272.407 25.357 272.976 25.2077 273.62 25.2077C274.544 25.2077 275.267 25.5064 275.79 26.1037C276.313 26.6917 276.574 27.5037 276.574 28.5397V28.9737H271.45C271.487 29.7484 271.711 30.341 272.122 30.7517C272.533 31.153 273.102 31.3537 273.83 31.3537C274.241 31.3537 274.633 31.293 275.006 31.1717C275.379 31.041 275.734 30.831 276.07 30.5417L276.462 31.3397C276.154 31.629 275.762 31.8577 275.286 32.0257C274.81 32.1844 274.325 32.2637 273.83 32.2637ZM273.648 26.0477C273.004 26.0477 272.495 26.2484 272.122 26.6497C271.749 27.051 271.529 27.5784 271.464 28.2317H275.594C275.566 27.541 275.384 27.0044 275.048 26.6217C274.721 26.239 274.255 26.0477 273.648 26.0477ZM280.357 32.2637C279.89 32.2637 279.47 32.175 279.097 31.9977C278.733 31.811 278.444 31.559 278.229 31.2417C278.014 30.9244 277.907 30.5697 277.907 30.1777C277.907 29.683 278.033 29.291 278.285 29.0017C278.546 28.7124 278.971 28.507 279.559 28.3857C280.156 28.255 280.968 28.1897 281.995 28.1897H282.443V27.7557C282.443 27.177 282.322 26.7617 282.079 26.5097C281.846 26.2484 281.468 26.1177 280.945 26.1177C280.534 26.1177 280.138 26.1784 279.755 26.2997C279.372 26.4117 278.98 26.5984 278.579 26.8597L278.187 26.0337C278.542 25.7817 278.971 25.581 279.475 25.4317C279.988 25.2824 280.478 25.2077 280.945 25.2077C281.822 25.2077 282.471 25.4224 282.891 25.8517C283.32 26.281 283.535 26.9484 283.535 27.8537V32.1377H282.471V30.9617C282.294 31.363 282.018 31.6804 281.645 31.9137C281.281 32.147 280.852 32.2637 280.357 32.2637ZM280.539 31.4097C281.099 31.4097 281.556 31.2184 281.911 30.8357C282.266 30.4437 282.443 29.949 282.443 29.3517V28.9317H282.009C281.253 28.9317 280.656 28.969 280.217 29.0437C279.788 29.109 279.484 29.2304 279.307 29.4077C279.139 29.5757 279.055 29.809 279.055 30.1077C279.055 30.4904 279.186 30.803 279.447 31.0457C279.718 31.2884 280.082 31.4097 280.539 31.4097ZM287.935 32.2637C287.403 32.2637 286.899 32.189 286.423 32.0397C285.947 31.8904 285.555 31.6804 285.247 31.4097L285.611 30.6117C285.947 30.8824 286.316 31.083 286.717 31.2137C287.128 31.335 287.543 31.3957 287.963 31.3957C288.495 31.3957 288.896 31.2977 289.167 31.1017C289.438 30.9057 289.573 30.6397 289.573 30.3037C289.573 30.0424 289.484 29.837 289.307 29.6877C289.13 29.529 288.85 29.4077 288.467 29.3237L287.193 29.0437C286.036 28.7917 285.457 28.1944 285.457 27.2517C285.457 26.6357 285.7 26.141 286.185 25.7677C286.68 25.3944 287.324 25.2077 288.117 25.2077C288.584 25.2077 289.027 25.2824 289.447 25.4317C289.876 25.5717 290.231 25.7817 290.511 26.0617L290.133 26.8597C289.862 26.6077 289.545 26.4164 289.181 26.2857C288.826 26.1457 288.472 26.0757 288.117 26.0757C287.594 26.0757 287.198 26.1784 286.927 26.3837C286.656 26.589 286.521 26.8597 286.521 27.1957C286.521 27.7184 286.866 28.0544 287.557 28.2037L288.831 28.4697C289.428 28.6004 289.881 28.8104 290.189 29.0997C290.497 29.3797 290.651 29.7624 290.651 30.2477C290.651 30.873 290.404 31.3677 289.909 31.7317C289.414 32.0864 288.756 32.2637 287.935 32.2637ZM294.787 32.2637C293.154 32.2637 292.337 31.363 292.337 29.5617V25.3337H293.471V29.5477C293.471 30.1544 293.593 30.6024 293.835 30.8917C294.087 31.181 294.479 31.3257 295.011 31.3257C295.59 31.3257 296.061 31.1344 296.425 30.7517C296.789 30.3597 296.971 29.8417 296.971 29.1977V25.3337H298.105V32.1377H296.999V30.9897C296.785 31.4004 296.481 31.7177 296.089 31.9417C295.707 32.1564 295.273 32.2637 294.787 32.2637ZM300.227 32.1377V25.3337H301.333V26.5517C301.697 25.7304 302.444 25.2777 303.573 25.1937L303.979 25.1517L304.063 26.1317L303.349 26.2157C302.705 26.2717 302.215 26.477 301.879 26.8317C301.543 27.177 301.375 27.653 301.375 28.2597V32.1377H300.227ZM308.228 32.2637C307.155 32.2637 306.306 31.951 305.68 31.3257C305.055 30.691 304.742 29.8324 304.742 28.7497C304.742 28.0497 304.882 27.4337 305.162 26.9017C305.442 26.3604 305.825 25.945 306.31 25.6557C306.805 25.357 307.374 25.2077 308.018 25.2077C308.942 25.2077 309.666 25.5064 310.188 26.1037C310.711 26.6917 310.972 27.5037 310.972 28.5397V28.9737H305.848C305.886 29.7484 306.11 30.341 306.52 30.7517C306.931 31.153 307.5 31.3537 308.228 31.3537C308.639 31.3537 309.031 31.293 309.404 31.1717C309.778 31.041 310.132 30.831 310.468 30.5417L310.86 31.3397C310.552 31.629 310.16 31.8577 309.684 32.0257C309.208 32.1844 308.723 32.2637 308.228 32.2637ZM308.046 26.0477C307.402 26.0477 306.894 26.2484 306.52 26.6497C306.147 27.051 305.928 27.5784 305.862 28.2317H309.992C309.964 27.541 309.782 27.0044 309.446 26.6217C309.12 26.239 308.653 26.0477 308.046 26.0477ZM312.642 32.1377V25.3337H313.748V26.4817C313.953 26.071 314.238 25.7584 314.602 25.5437C314.966 25.3197 315.39 25.2077 315.876 25.2077C316.94 25.2077 317.621 25.6697 317.92 26.5937C318.125 26.1644 318.428 25.8284 318.83 25.5857C319.231 25.3337 319.693 25.2077 320.216 25.2077C321.728 25.2077 322.484 26.1037 322.484 27.8957V32.1377H321.35V27.9517C321.35 27.3264 321.238 26.869 321.014 26.5797C320.799 26.281 320.44 26.1317 319.936 26.1317C319.385 26.1317 318.946 26.3277 318.62 26.7197C318.293 27.1117 318.13 27.6344 318.13 28.2877V32.1377H316.996V27.9517C316.996 27.3264 316.884 26.869 316.66 26.5797C316.445 26.281 316.086 26.1317 315.582 26.1317C315.022 26.1317 314.578 26.3277 314.252 26.7197C313.934 27.1117 313.776 27.6344 313.776 28.2877V32.1377H312.642ZM327.67 32.2637C326.596 32.2637 325.747 31.951 325.122 31.3257C324.496 30.691 324.184 29.8324 324.184 28.7497C324.184 28.0497 324.324 27.4337 324.604 26.9017C324.884 26.3604 325.266 25.945 325.752 25.6557C326.246 25.357 326.816 25.2077 327.46 25.2077C328.384 25.2077 329.107 25.5064 329.63 26.1037C330.152 26.6917 330.414 27.5037 330.414 28.5397V28.9737H325.29C325.327 29.7484 325.551 30.341 325.962 30.7517C326.372 31.153 326.942 31.3537 327.67 31.3537C328.08 31.3537 328.472 31.293 328.846 31.1717C329.219 31.041 329.574 30.831 329.91 30.5417L330.302 31.3397C329.994 31.629 329.602 31.8577 329.126 32.0257C328.65 32.1844 328.164 32.2637 327.67 32.2637ZM327.488 26.0477C326.844 26.0477 326.335 26.2484 325.962 26.6497C325.588 27.051 325.369 27.5784 325.304 28.2317H329.434C329.406 27.541 329.224 27.0044 328.888 26.6217C328.561 26.239 328.094 26.0477 327.488 26.0477ZM332.055 32.1377V25.3337H333.161V26.4957C333.385 26.0664 333.702 25.7444 334.113 25.5297C334.524 25.315 334.986 25.2077 335.499 25.2077C337.114 25.2077 337.921 26.1037 337.921 27.8957V32.1377H336.787V27.9657C336.787 27.331 336.661 26.869 336.409 26.5797C336.166 26.281 335.774 26.1317 335.233 26.1317C334.608 26.1317 334.108 26.3277 333.735 26.7197C333.371 27.1024 333.189 27.6157 333.189 28.2597V32.1377H332.055ZM342.742 32.2637C341.939 32.2637 341.337 32.0537 340.936 31.6337C340.535 31.2044 340.334 30.5884 340.334 29.7857V26.2157H339.004V25.3337H340.334V23.2477H341.468V25.3337H343.624V26.2157H341.468V29.6737C341.468 30.2057 341.58 30.6117 341.804 30.8917C342.028 31.1624 342.392 31.2977 342.896 31.2977C343.045 31.2977 343.195 31.279 343.344 31.2417C343.493 31.2044 343.629 31.167 343.75 31.1297L343.946 31.9977C343.825 32.063 343.647 32.1237 343.414 32.1797C343.181 32.2357 342.957 32.2637 342.742 32.2637ZM347.203 32.2637C346.671 32.2637 346.167 32.189 345.691 32.0397C345.215 31.8904 344.823 31.6804 344.515 31.4097L344.879 30.6117C345.215 30.8824 345.583 31.083 345.985 31.2137C346.395 31.335 346.811 31.3957 347.231 31.3957C347.763 31.3957 348.164 31.2977 348.435 31.1017C348.705 30.9057 348.841 30.6397 348.841 30.3037C348.841 30.0424 348.752 29.837 348.575 29.6877C348.397 29.529 348.117 29.4077 347.735 29.3237L346.461 29.0437C345.303 28.7917 344.725 28.1944 344.725 27.2517C344.725 26.6357 344.967 26.141 345.453 25.7677C345.947 25.3944 346.591 25.2077 347.385 25.2077C347.851 25.2077 348.295 25.2824 348.715 25.4317C349.144 25.5717 349.499 25.7817 349.779 26.0617L349.401 26.8597C349.13 26.6077 348.813 26.4164 348.449 26.2857C348.094 26.1457 347.739 26.0757 347.385 26.0757C346.862 26.0757 346.465 26.1784 346.195 26.3837C345.924 26.589 345.789 26.8597 345.789 27.1957C345.789 27.7184 346.134 28.0544 346.825 28.2037L348.099 28.4697C348.696 28.6004 349.149 28.8104 349.457 29.0997C349.765 29.3797 349.919 29.7624 349.919 30.2477C349.919 30.873 349.671 31.3677 349.177 31.7317C348.682 32.0864 348.024 32.2637 347.203 32.2637ZM355.242 34.6577V25.3337H356.348V26.5517C356.554 26.1317 356.857 25.805 357.258 25.5717C357.669 25.329 358.145 25.2077 358.686 25.2077C359.293 25.2077 359.82 25.3524 360.268 25.6417C360.726 25.9217 361.076 26.3277 361.318 26.8597C361.57 27.3824 361.696 28.0077 361.696 28.7357C361.696 29.4544 361.57 30.0797 361.318 30.6117C361.076 31.1344 360.726 31.5404 360.268 31.8297C359.82 32.119 359.293 32.2637 358.686 32.2637C358.164 32.2637 357.697 32.147 357.286 31.9137C356.876 31.6804 356.572 31.3584 356.376 30.9477V34.6577H355.242ZM358.448 31.3537C359.083 31.3537 359.592 31.1297 359.974 30.6817C360.357 30.2244 360.548 29.5757 360.548 28.7357C360.548 27.8864 360.357 27.2377 359.974 26.7897C359.592 26.3417 359.083 26.1177 358.448 26.1177C357.814 26.1177 357.305 26.3417 356.922 26.7897C356.54 27.2377 356.348 27.8864 356.348 28.7357C356.348 29.5757 356.54 30.2244 356.922 30.6817C357.305 31.1297 357.814 31.3537 358.448 31.3537ZM366.471 32.2637C365.397 32.2637 364.548 31.951 363.923 31.3257C363.297 30.691 362.985 29.8324 362.985 28.7497C362.985 28.0497 363.125 27.4337 363.405 26.9017C363.685 26.3604 364.067 25.945 364.553 25.6557C365.047 25.357 365.617 25.2077 366.261 25.2077C367.185 25.2077 367.908 25.5064 368.431 26.1037C368.953 26.6917 369.215 27.5037 369.215 28.5397V28.9737H364.091C364.128 29.7484 364.352 30.341 364.763 30.7517C365.173 31.153 365.743 31.3537 366.471 31.3537C366.881 31.3537 367.273 31.293 367.647 31.1717C368.02 31.041 368.375 30.831 368.711 30.5417L369.103 31.3397C368.795 31.629 368.403 31.8577 367.927 32.0257C367.451 32.1844 366.965 32.2637 366.471 32.2637ZM366.289 26.0477C365.645 26.0477 365.136 26.2484 364.763 26.6497C364.389 27.051 364.17 27.5784 364.105 28.2317H368.235C368.207 27.541 368.025 27.0044 367.689 26.6217C367.362 26.239 366.895 26.0477 366.289 26.0477ZM370.856 32.1377V25.3337H371.962V26.5517C372.326 25.7304 373.072 25.2777 374.202 25.1937L374.608 25.1517L374.692 26.1317L373.978 26.2157C373.334 26.2717 372.844 26.477 372.508 26.8317C372.172 27.177 372.004 27.653 372.004 28.2597V32.1377H370.856ZM382.059 32.2637C381.452 32.2637 380.92 32.119 380.463 31.8297C380.015 31.5404 379.665 31.1344 379.413 30.6117C379.17 30.0797 379.049 29.4544 379.049 28.7357C379.049 28.0077 379.17 27.3824 379.413 26.8597C379.665 26.3277 380.015 25.9217 380.463 25.6417C380.92 25.3524 381.452 25.2077 382.059 25.2077C382.591 25.2077 383.058 25.3244 383.459 25.5577C383.87 25.791 384.173 26.113 384.369 26.5237V22.2677H385.503V32.1377H384.397V30.8917C384.201 31.321 383.898 31.657 383.487 31.8997C383.076 32.1424 382.6 32.2637 382.059 32.2637ZM382.297 31.3537C382.932 31.3537 383.44 31.1297 383.823 30.6817C384.206 30.2244 384.397 29.5757 384.397 28.7357C384.397 27.8864 384.206 27.2377 383.823 26.7897C383.44 26.3417 382.932 26.1177 382.297 26.1177C381.653 26.1177 381.14 26.3417 380.757 26.7897C380.384 27.2377 380.197 27.8864 380.197 28.7357C380.197 29.5757 380.384 30.2244 380.757 30.6817C381.14 31.1297 381.653 31.3537 382.297 31.3537ZM389.773 32.2637C389.306 32.2637 388.886 32.175 388.513 31.9977C388.149 31.811 387.86 31.559 387.645 31.2417C387.43 30.9244 387.323 30.5697 387.323 30.1777C387.323 29.683 387.449 29.291 387.701 29.0017C387.962 28.7124 388.387 28.507 388.975 28.3857C389.572 28.255 390.384 28.1897 391.411 28.1897H391.859V27.7557C391.859 27.177 391.738 26.7617 391.495 26.5097C391.262 26.2484 390.884 26.1177 390.361 26.1177C389.95 26.1177 389.554 26.1784 389.171 26.2997C388.788 26.4117 388.396 26.5984 387.995 26.8597L387.603 26.0337C387.958 25.7817 388.387 25.581 388.891 25.4317C389.404 25.2824 389.894 25.2077 390.361 25.2077C391.238 25.2077 391.887 25.4224 392.307 25.8517C392.736 26.281 392.951 26.9484 392.951 27.8537V32.1377H391.887V30.9617C391.71 31.363 391.434 31.6804 391.061 31.9137C390.697 32.147 390.268 32.2637 389.773 32.2637ZM389.955 31.4097C390.515 31.4097 390.972 31.2184 391.327 30.8357C391.682 30.4437 391.859 29.949 391.859 29.3517V28.9317H391.425C390.669 28.9317 390.072 28.969 389.633 29.0437C389.204 29.109 388.9 29.2304 388.723 29.4077C388.555 29.5757 388.471 29.809 388.471 30.1077C388.471 30.4904 388.602 30.803 388.863 31.0457C389.134 31.2884 389.498 31.4097 389.955 31.4097ZM395.771 34.6577L396.933 32.0257L394.063 25.3337H395.295L397.549 30.8497L399.817 25.3337H401.007L396.961 34.6577H395.771ZM85.7554 51.2637C85.074 51.2637 84.486 51.119 83.9914 50.8297C83.4967 50.531 83.114 50.1157 82.8434 49.5837C82.582 49.0424 82.4514 48.4124 82.4514 47.6937C82.4514 46.611 82.7454 45.7617 83.3334 45.1457C83.9214 44.5204 84.7287 44.2077 85.7554 44.2077C86.1754 44.2077 86.5907 44.2824 87.0014 44.4317C87.412 44.581 87.7527 44.791 88.0234 45.0617L87.6314 45.8877C87.3607 45.6264 87.062 45.435 86.7354 45.3137C86.418 45.1924 86.1147 45.1317 85.8254 45.1317C85.116 45.1317 84.57 45.3557 84.1874 45.8037C83.8047 46.2424 83.6134 46.877 83.6134 47.7077C83.6134 48.5197 83.8047 49.1637 84.1874 49.6397C84.57 50.1064 85.116 50.3397 85.8254 50.3397C86.1147 50.3397 86.418 50.279 86.7354 50.1577C87.062 50.0364 87.3607 49.8404 87.6314 49.5697L88.0234 50.3957C87.7527 50.6664 87.4074 50.881 86.9874 51.0397C86.5767 51.189 86.166 51.2637 85.7554 51.2637ZM92.0431 51.2637C91.3805 51.2637 90.8065 51.119 90.3211 50.8297C89.8358 50.5404 89.4578 50.1344 89.1871 49.6117C88.9258 49.0797 88.7951 48.4544 88.7951 47.7357C88.7951 47.017 88.9258 46.3964 89.1871 45.8737C89.4578 45.3417 89.8358 44.931 90.3211 44.6417C90.8065 44.3524 91.3805 44.2077 92.0431 44.2077C92.6965 44.2077 93.2658 44.3524 93.7511 44.6417C94.2458 44.931 94.6238 45.3417 94.8851 45.8737C95.1558 46.3964 95.2911 47.017 95.2911 47.7357C95.2911 48.4544 95.1558 49.0797 94.8851 49.6117C94.6238 50.1344 94.2458 50.5404 93.7511 50.8297C93.2658 51.119 92.6965 51.2637 92.0431 51.2637ZM92.0431 50.3537C92.6778 50.3537 93.1865 50.1297 93.5691 49.6817C93.9518 49.2244 94.1431 48.5757 94.1431 47.7357C94.1431 46.8864 93.9518 46.2377 93.5691 45.7897C93.1865 45.3417 92.6778 45.1177 92.0431 45.1177C91.3991 45.1177 90.8858 45.3417 90.5031 45.7897C90.1298 46.2377 89.9431 46.8864 89.9431 47.7357C89.9431 48.5757 90.1298 49.2244 90.5031 49.6817C90.8858 50.1297 91.3991 50.3537 92.0431 50.3537ZM96.9944 51.1377V44.3337H98.1004V45.4957C98.3244 45.0664 98.6418 44.7444 99.0524 44.5297C99.4631 44.315 99.9251 44.2077 100.438 44.2077C102.053 44.2077 102.86 45.1037 102.86 46.8957V51.1377H101.726V46.9657C101.726 46.331 101.6 45.869 101.348 45.5797C101.106 45.281 100.714 45.1317 100.172 45.1317C99.5471 45.1317 99.0478 45.3277 98.6744 45.7197C98.3104 46.1024 98.1284 46.6157 98.1284 47.2597V51.1377H96.9944ZM107.681 51.2637C106.879 51.2637 106.277 51.0537 105.875 50.6337C105.474 50.2044 105.273 49.5884 105.273 48.7857V45.2157H103.943V44.3337H105.273V42.2477H106.407V44.3337H108.563V45.2157H106.407V48.6737C106.407 49.2057 106.519 49.6117 106.743 49.8917C106.967 50.1624 107.331 50.2977 107.835 50.2977C107.985 50.2977 108.134 50.279 108.283 50.2417C108.433 50.2044 108.568 50.167 108.689 50.1297L108.885 50.9977C108.764 51.063 108.587 51.1237 108.353 51.1797C108.12 51.2357 107.896 51.2637 107.681 51.2637ZM111.988 51.2637C111.521 51.2637 111.101 51.175 110.728 50.9977C110.364 50.811 110.075 50.559 109.86 50.2417C109.645 49.9244 109.538 49.5697 109.538 49.1777C109.538 48.683 109.664 48.291 109.916 48.0017C110.177 47.7124 110.602 47.507 111.19 47.3857C111.787 47.255 112.599 47.1897 113.626 47.1897H114.074V46.7557C114.074 46.177 113.953 45.7617 113.71 45.5097C113.477 45.2484 113.099 45.1177 112.576 45.1177C112.165 45.1177 111.769 45.1784 111.386 45.2997C111.003 45.4117 110.611 45.5984 110.21 45.8597L109.818 45.0337C110.173 44.7817 110.602 44.581 111.106 44.4317C111.619 44.2824 112.109 44.2077 112.576 44.2077C113.453 44.2077 114.102 44.4224 114.522 44.8517C114.951 45.281 115.166 45.9484 115.166 46.8537V51.1377H114.102V49.9617C113.925 50.363 113.649 50.6804 113.276 50.9137C112.912 51.147 112.483 51.2637 111.988 51.2637ZM112.17 50.4097C112.73 50.4097 113.187 50.2184 113.542 49.8357C113.897 49.4437 114.074 48.949 114.074 48.3517V47.9317H113.64C112.884 47.9317 112.287 47.969 111.848 48.0437C111.419 48.109 111.115 48.2304 110.938 48.4077C110.77 48.5757 110.686 48.809 110.686 49.1077C110.686 49.4904 110.817 49.803 111.078 50.0457C111.349 50.2884 111.713 50.4097 112.17 50.4097ZM120.154 51.2637C119.472 51.2637 118.884 51.119 118.39 50.8297C117.895 50.531 117.512 50.1157 117.242 49.5837C116.98 49.0424 116.85 48.4124 116.85 47.6937C116.85 46.611 117.144 45.7617 117.732 45.1457C118.32 44.5204 119.127 44.2077 120.154 44.2077C120.574 44.2077 120.989 44.2824 121.4 44.4317C121.81 44.581 122.151 44.791 122.422 45.0617L122.03 45.8877C121.759 45.6264 121.46 45.435 121.134 45.3137C120.816 45.1924 120.513 45.1317 120.224 45.1317C119.514 45.1317 118.968 45.3557 118.586 45.8037C118.203 46.2424 118.012 46.877 118.012 47.7077C118.012 48.5197 118.203 49.1637 118.586 49.6397C118.968 50.1064 119.514 50.3397 120.224 50.3397C120.513 50.3397 120.816 50.279 121.134 50.1577C121.46 50.0364 121.759 49.8404 122.03 49.5697L122.422 50.3957C122.151 50.6664 121.806 50.881 121.386 51.0397C120.975 51.189 120.564 51.2637 120.154 51.2637ZM126.48 51.2637C125.678 51.2637 125.076 51.0537 124.674 50.6337C124.273 50.2044 124.072 49.5884 124.072 48.7857V45.2157H122.742V44.3337H124.072V42.2477H125.206V44.3337H127.362V45.2157H125.206V48.6737C125.206 49.2057 125.318 49.6117 125.542 49.8917C125.766 50.1624 126.13 50.2977 126.634 50.2977C126.784 50.2977 126.933 50.279 127.082 50.2417C127.232 50.2044 127.367 50.167 127.488 50.1297L127.684 50.9977C127.563 51.063 127.386 51.1237 127.152 51.1797C126.919 51.2357 126.695 51.2637 126.48 51.2637ZM129.242 52.7337L128.71 52.3277C128.916 52.113 129.06 51.9077 129.144 51.7117C129.238 51.525 129.298 51.3337 129.326 51.1377H128.654V49.7097H130.082V50.7177C130.082 51.1004 130.022 51.455 129.9 51.7817C129.779 52.1084 129.56 52.4257 129.242 52.7337ZM138.445 51.2637C137.783 51.2637 137.209 51.119 136.723 50.8297C136.238 50.5404 135.86 50.1344 135.589 49.6117C135.328 49.0797 135.197 48.4544 135.197 47.7357C135.197 47.017 135.328 46.3964 135.589 45.8737C135.86 45.3417 136.238 44.931 136.723 44.6417C137.209 44.3524 137.783 44.2077 138.445 44.2077C139.099 44.2077 139.668 44.3524 140.153 44.6417C140.648 44.931 141.026 45.3417 141.287 45.8737C141.558 46.3964 141.693 47.017 141.693 47.7357C141.693 48.4544 141.558 49.0797 141.287 49.6117C141.026 50.1344 140.648 50.5404 140.153 50.8297C139.668 51.119 139.099 51.2637 138.445 51.2637ZM138.445 50.3537C139.08 50.3537 139.589 50.1297 139.971 49.6817C140.354 49.2244 140.545 48.5757 140.545 47.7357C140.545 46.8864 140.354 46.2377 139.971 45.7897C139.589 45.3417 139.08 45.1177 138.445 45.1177C137.801 45.1177 137.288 45.3417 136.905 45.7897C136.532 46.2377 136.345 46.8864 136.345 47.7357C136.345 48.5757 136.532 49.2244 136.905 49.6817C137.288 50.1297 137.801 50.3537 138.445 50.3537ZM143.397 51.1377V44.3337H144.503V45.5517C144.867 44.7304 145.613 44.2777 146.743 44.1937L147.149 44.1517L147.233 45.1317L146.519 45.2157C145.875 45.2717 145.385 45.477 145.049 45.8317C144.713 46.177 144.545 46.653 144.545 47.2597V51.1377H143.397ZM154.152 51.2637C153.685 51.2637 153.265 51.175 152.892 50.9977C152.528 50.811 152.239 50.559 152.024 50.2417C151.809 49.9244 151.702 49.5697 151.702 49.1777C151.702 48.683 151.828 48.291 152.08 48.0017C152.341 47.7124 152.766 47.507 153.354 47.3857C153.951 47.255 154.763 47.1897 155.79 47.1897H156.238V46.7557C156.238 46.177 156.117 45.7617 155.874 45.5097C155.641 45.2484 155.263 45.1177 154.74 45.1177C154.329 45.1177 153.933 45.1784 153.55 45.2997C153.167 45.4117 152.775 45.5984 152.374 45.8597L151.982 45.0337C152.337 44.7817 152.766 44.581 153.27 44.4317C153.783 44.2824 154.273 44.2077 154.74 44.2077C155.617 44.2077 156.266 44.4224 156.686 44.8517C157.115 45.281 157.33 45.9484 157.33 46.8537V51.1377H156.266V49.9617C156.089 50.363 155.813 50.6804 155.44 50.9137C155.076 51.147 154.647 51.2637 154.152 51.2637ZM154.334 50.4097C154.894 50.4097 155.351 50.2184 155.706 49.8357C156.061 49.4437 156.238 48.949 156.238 48.3517V47.9317H155.804C155.048 47.9317 154.451 47.969 154.012 48.0437C153.583 48.109 153.279 48.2304 153.102 48.4077C152.934 48.5757 152.85 48.809 152.85 49.1077C152.85 49.4904 152.981 49.803 153.242 50.0457C153.513 50.2884 153.877 50.4097 154.334 50.4097ZM159.434 53.6577V44.3337H160.54V45.5517C160.745 45.1317 161.049 44.805 161.45 44.5717C161.861 44.329 162.337 44.2077 162.878 44.2077C163.485 44.2077 164.012 44.3524 164.46 44.6417C164.917 44.9217 165.267 45.3277 165.51 45.8597C165.762 46.3824 165.888 47.0077 165.888 47.7357C165.888 48.4544 165.762 49.0797 165.51 49.6117C165.267 50.1344 164.917 50.5404 164.46 50.8297C164.012 51.119 163.485 51.2637 162.878 51.2637C162.355 51.2637 161.889 51.147 161.478 50.9137C161.067 50.6804 160.764 50.3584 160.568 49.9477V53.6577H159.434ZM162.64 50.3537C163.275 50.3537 163.783 50.1297 164.166 49.6817C164.549 49.2244 164.74 48.5757 164.74 47.7357C164.74 46.8864 164.549 46.2377 164.166 45.7897C163.783 45.3417 163.275 45.1177 162.64 45.1177C162.005 45.1177 161.497 45.3417 161.114 45.7897C160.731 46.2377 160.54 46.8864 160.54 47.7357C160.54 48.5757 160.731 49.2244 161.114 49.6817C161.497 50.1297 162.005 50.3537 162.64 50.3537ZM167.596 53.6577V44.3337H168.702V45.5517C168.907 45.1317 169.211 44.805 169.612 44.5717C170.023 44.329 170.499 44.2077 171.04 44.2077C171.647 44.2077 172.174 44.3524 172.622 44.6417C173.079 44.9217 173.429 45.3277 173.672 45.8597C173.924 46.3824 174.05 47.0077 174.05 47.7357C174.05 48.4544 173.924 49.0797 173.672 49.6117C173.429 50.1344 173.079 50.5404 172.622 50.8297C172.174 51.119 171.647 51.2637 171.04 51.2637C170.517 51.2637 170.051 51.147 169.64 50.9137C169.229 50.6804 168.926 50.3584 168.73 49.9477V53.6577H167.596ZM170.802 50.3537C171.437 50.3537 171.945 50.1297 172.328 49.6817C172.711 49.2244 172.902 48.5757 172.902 47.7357C172.902 46.8864 172.711 46.2377 172.328 45.7897C171.945 45.3417 171.437 45.1177 170.802 45.1177C170.167 45.1177 169.659 45.3417 169.276 45.7897C168.893 46.2377 168.702 46.8864 168.702 47.7357C168.702 48.5757 168.893 49.2244 169.276 49.6817C169.659 50.1297 170.167 50.3537 170.802 50.3537ZM178.586 51.2637C177.923 51.2637 177.349 51.119 176.864 50.8297C176.379 50.5404 176.001 50.1344 175.73 49.6117C175.469 49.0797 175.338 48.4544 175.338 47.7357C175.338 47.017 175.469 46.3964 175.73 45.8737C176.001 45.3417 176.379 44.931 176.864 44.6417C177.349 44.3524 177.923 44.2077 178.586 44.2077C179.239 44.2077 179.809 44.3524 180.294 44.6417C180.789 44.931 181.167 45.3417 181.428 45.8737C181.699 46.3964 181.834 47.017 181.834 47.7357C181.834 48.4544 181.699 49.0797 181.428 49.6117C181.167 50.1344 180.789 50.5404 180.294 50.8297C179.809 51.119 179.239 51.2637 178.586 51.2637ZM178.586 50.3537C179.221 50.3537 179.729 50.1297 180.112 49.6817C180.495 49.2244 180.686 48.5757 180.686 47.7357C180.686 46.8864 180.495 46.2377 180.112 45.7897C179.729 45.3417 179.221 45.1177 178.586 45.1177C177.942 45.1177 177.429 45.3417 177.046 45.7897C176.673 46.2377 176.486 46.8864 176.486 47.7357C176.486 48.5757 176.673 49.2244 177.046 49.6817C177.429 50.1297 177.942 50.3537 178.586 50.3537ZM183.397 42.6397V41.3657H184.797V42.6397H183.397ZM183.537 51.1377V44.3337H184.671V51.1377H183.537ZM186.791 51.1377V44.3337H187.897V45.4957C188.121 45.0664 188.439 44.7444 188.849 44.5297C189.26 44.315 189.722 44.2077 190.235 44.2077C191.85 44.2077 192.657 45.1037 192.657 46.8957V51.1377H191.523V46.9657C191.523 46.331 191.397 45.869 191.145 45.5797C190.903 45.281 190.511 45.1317 189.969 45.1317C189.344 45.1317 188.845 45.3277 188.471 45.7197C188.107 46.1024 187.925 46.6157 187.925 47.2597V51.1377H186.791ZM197.478 51.2637C196.676 51.2637 196.074 51.0537 195.672 50.6337C195.271 50.2044 195.07 49.5884 195.07 48.7857V45.2157H193.74V44.3337H195.07V42.2477H196.204V44.3337H198.36V45.2157H196.204V48.6737C196.204 49.2057 196.316 49.6117 196.54 49.8917C196.764 50.1624 197.128 50.2977 197.632 50.2977C197.782 50.2977 197.931 50.279 198.08 50.2417C198.23 50.2044 198.365 50.167 198.486 50.1297L198.682 50.9977C198.561 51.063 198.384 51.1237 198.15 51.1797C197.917 51.2357 197.693 51.2637 197.478 51.2637ZM205.381 51.2637C204.914 51.2637 204.494 51.175 204.121 50.9977C203.757 50.811 203.467 50.559 203.253 50.2417C203.038 49.9244 202.931 49.5697 202.931 49.1777C202.931 48.683 203.057 48.291 203.309 48.0017C203.57 47.7124 203.995 47.507 204.583 47.3857C205.18 47.255 205.992 47.1897 207.019 47.1897H207.467V46.7557C207.467 46.177 207.345 45.7617 207.103 45.5097C206.869 45.2484 206.491 45.1177 205.969 45.1177C205.558 45.1177 205.161 45.1784 204.779 45.2997C204.396 45.4117 204.004 45.5984 203.603 45.8597L203.211 45.0337C203.565 44.7817 203.995 44.581 204.499 44.4317C205.012 44.2824 205.502 44.2077 205.969 44.2077C206.846 44.2077 207.495 44.4224 207.915 44.8517C208.344 45.281 208.559 45.9484 208.559 46.8537V51.1377H207.495V49.9617C207.317 50.363 207.042 50.6804 206.669 50.9137C206.305 51.147 205.875 51.2637 205.381 51.2637ZM205.563 50.4097C206.123 50.4097 206.58 50.2184 206.935 49.8357C207.289 49.4437 207.467 48.949 207.467 48.3517V47.9317H207.033C206.277 47.9317 205.679 47.969 205.241 48.0437C204.811 48.109 204.508 48.2304 204.331 48.4077C204.163 48.5757 204.079 48.809 204.079 49.1077C204.079 49.4904 204.209 49.803 204.471 50.0457C204.741 50.2884 205.105 50.4097 205.563 50.4097ZM216.848 51.2637C216.241 51.2637 215.709 51.119 215.252 50.8297C214.804 50.5404 214.454 50.1344 214.202 49.6117C213.959 49.0797 213.838 48.4544 213.838 47.7357C213.838 47.0077 213.959 46.3824 214.202 45.8597C214.454 45.3277 214.804 44.9217 215.252 44.6417C215.709 44.3524 216.241 44.2077 216.848 44.2077C217.38 44.2077 217.847 44.3244 218.248 44.5577C218.659 44.791 218.962 45.113 219.158 45.5237V41.2677H220.292V51.1377H219.186V49.8917C218.99 50.321 218.687 50.657 218.276 50.8997C217.865 51.1424 217.389 51.2637 216.848 51.2637ZM217.086 50.3537C217.721 50.3537 218.229 50.1297 218.612 49.6817C218.995 49.2244 219.186 48.5757 219.186 47.7357C219.186 46.8864 218.995 46.2377 218.612 45.7897C218.229 45.3417 217.721 45.1177 217.086 45.1177C216.442 45.1177 215.929 45.3417 215.546 45.7897C215.173 46.2377 214.986 46.8864 214.986 47.7357C214.986 48.5757 215.173 49.2244 215.546 49.6817C215.929 50.1297 216.442 50.3537 217.086 50.3537ZM224.562 51.2637C224.096 51.2637 223.676 51.175 223.302 50.9977C222.938 50.811 222.649 50.559 222.434 50.2417C222.22 49.9244 222.112 49.5697 222.112 49.1777C222.112 48.683 222.238 48.291 222.49 48.0017C222.752 47.7124 223.176 47.507 223.764 47.3857C224.362 47.255 225.174 47.1897 226.2 47.1897H226.648V46.7557C226.648 46.177 226.527 45.7617 226.284 45.5097C226.051 45.2484 225.673 45.1177 225.15 45.1177C224.74 45.1177 224.343 45.1784 223.96 45.2997C223.578 45.4117 223.186 45.5984 222.784 45.8597L222.392 45.0337C222.747 44.7817 223.176 44.581 223.68 44.4317C224.194 44.2824 224.684 44.2077 225.15 44.2077C226.028 44.2077 226.676 44.4224 227.096 44.8517C227.526 45.281 227.74 45.9484 227.74 46.8537V51.1377H226.676V49.9617C226.499 50.363 226.224 50.6804 225.85 50.9137C225.486 51.147 225.057 51.2637 224.562 51.2637ZM224.744 50.4097C225.304 50.4097 225.762 50.2184 226.116 49.8357C226.471 49.4437 226.648 48.949 226.648 48.3517V47.9317H226.214C225.458 47.9317 224.861 47.969 224.422 48.0437C223.993 48.109 223.69 48.2304 223.512 48.4077C223.344 48.5757 223.26 48.809 223.26 49.1077C223.26 49.4904 223.391 49.803 223.652 50.0457C223.923 50.2884 224.287 50.4097 224.744 50.4097ZM232.574 51.2637C231.771 51.2637 231.169 51.0537 230.768 50.6337C230.367 50.2044 230.166 49.5884 230.166 48.7857V45.2157H228.836V44.3337H230.166V42.2477H231.3V44.3337H233.456V45.2157H231.3V48.6737C231.3 49.2057 231.412 49.6117 231.636 49.8917C231.86 50.1624 232.224 50.2977 232.728 50.2977C232.877 50.2977 233.027 50.279 233.176 50.2417C233.325 50.2044 233.461 50.167 233.582 50.1297L233.778 50.9977C233.657 51.063 233.479 51.1237 233.246 51.1797C233.013 51.2357 232.789 51.2637 232.574 51.2637ZM237.736 51.2637C236.663 51.2637 235.814 50.951 235.188 50.3257C234.563 49.691 234.25 48.8324 234.25 47.7497C234.25 47.0497 234.39 46.4337 234.67 45.9017C234.95 45.3604 235.333 44.945 235.818 44.6557C236.313 44.357 236.882 44.2077 237.526 44.2077C238.45 44.2077 239.174 44.5064 239.696 45.1037C240.219 45.6917 240.48 46.5037 240.48 47.5397V47.9737H235.356C235.394 48.7484 235.618 49.341 236.028 49.7517C236.439 50.153 237.008 50.3537 237.736 50.3537C238.147 50.3537 238.539 50.293 238.912 50.1717C239.286 50.041 239.64 49.831 239.976 49.5417L240.368 50.3397C240.06 50.629 239.668 50.8577 239.192 51.0257C238.716 51.1844 238.231 51.2637 237.736 51.2637ZM237.554 45.0477C236.91 45.0477 236.402 45.2484 236.028 45.6497C235.655 46.051 235.436 46.5784 235.37 47.2317H239.5C239.472 46.541 239.29 46.0044 238.954 45.6217C238.628 45.239 238.161 45.0477 237.554 45.0477ZM248.601 51.2637C247.92 51.2637 247.332 51.119 246.837 50.8297C246.342 50.531 245.96 50.1157 245.689 49.5837C245.428 49.0424 245.297 48.4124 245.297 47.6937C245.297 46.611 245.591 45.7617 246.179 45.1457C246.767 44.5204 247.574 44.2077 248.601 44.2077C249.021 44.2077 249.436 44.2824 249.847 44.4317C250.258 44.581 250.598 44.791 250.869 45.0617L250.477 45.8877C250.206 45.6264 249.908 45.435 249.581 45.3137C249.264 45.1924 248.96 45.1317 248.671 45.1317C247.962 45.1317 247.416 45.3557 247.033 45.8037C246.65 46.2424 246.459 46.877 246.459 47.7077C246.459 48.5197 246.65 49.1637 247.033 49.6397C247.416 50.1064 247.962 50.3397 248.671 50.3397C248.96 50.3397 249.264 50.279 249.581 50.1577C249.908 50.0364 250.206 49.8404 250.477 49.5697L250.869 50.3957C250.598 50.6664 250.253 50.881 249.833 51.0397C249.422 51.189 249.012 51.2637 248.601 51.2637ZM254.889 51.2637C254.226 51.2637 253.652 51.119 253.167 50.8297C252.681 50.5404 252.303 50.1344 252.033 49.6117C251.771 49.0797 251.641 48.4544 251.641 47.7357C251.641 47.017 251.771 46.3964 252.033 45.8737C252.303 45.3417 252.681 44.931 253.167 44.6417C253.652 44.3524 254.226 44.2077 254.889 44.2077C255.542 44.2077 256.111 44.3524 256.597 44.6417C257.091 44.931 257.469 45.3417 257.731 45.8737C258.001 46.3964 258.137 47.017 258.137 47.7357C258.137 48.4544 258.001 49.0797 257.731 49.6117C257.469 50.1344 257.091 50.5404 256.597 50.8297C256.111 51.119 255.542 51.2637 254.889 51.2637ZM254.889 50.3537C255.523 50.3537 256.032 50.1297 256.415 49.6817C256.797 49.2244 256.989 48.5757 256.989 47.7357C256.989 46.8864 256.797 46.2377 256.415 45.7897C256.032 45.3417 255.523 45.1177 254.889 45.1177C254.245 45.1177 253.731 45.3417 253.349 45.7897C252.975 46.2377 252.789 46.8864 252.789 47.7357C252.789 48.5757 252.975 49.2244 253.349 49.6817C253.731 50.1297 254.245 50.3537 254.889 50.3537ZM259.84 51.1377V44.3337H260.946V45.4957C261.17 45.0664 261.487 44.7444 261.898 44.5297C262.309 44.315 262.771 44.2077 263.284 44.2077C264.899 44.2077 265.706 45.1037 265.706 46.8957V51.1377H264.572V46.9657C264.572 46.331 264.446 45.869 264.194 45.5797C263.951 45.281 263.559 45.1317 263.018 45.1317C262.393 45.1317 261.893 45.3277 261.52 45.7197C261.156 46.1024 260.974 46.6157 260.974 47.2597V51.1377H259.84ZM269.731 51.1377L266.805 44.3337H268.037L270.291 49.8497L272.573 44.3337H273.735L270.795 51.1377H269.731ZM277.904 51.2637C276.831 51.2637 275.982 50.951 275.356 50.3257C274.731 49.691 274.418 48.8324 274.418 47.7497C274.418 47.0497 274.558 46.4337 274.838 45.9017C275.118 45.3604 275.501 44.945 275.986 44.6557C276.481 44.357 277.05 44.2077 277.694 44.2077C278.618 44.2077 279.342 44.5064 279.864 45.1037C280.387 45.6917 280.648 46.5037 280.648 47.5397V47.9737H275.524C275.562 48.7484 275.786 49.341 276.196 49.7517C276.607 50.153 277.176 50.3537 277.904 50.3537C278.315 50.3537 278.707 50.293 279.08 50.1717C279.454 50.041 279.808 49.831 280.144 49.5417L280.536 50.3397C280.228 50.629 279.836 50.8577 279.36 51.0257C278.884 51.1844 278.399 51.2637 277.904 51.2637ZM277.722 45.0477C277.078 45.0477 276.57 45.2484 276.196 45.6497C275.823 46.051 275.604 46.5784 275.538 47.2317H279.668C279.64 46.541 279.458 46.0044 279.122 45.6217C278.796 45.239 278.329 45.0477 277.722 45.0477ZM282.289 51.1377V44.3337H283.395V45.4957C283.619 45.0664 283.937 44.7444 284.347 44.5297C284.758 44.315 285.22 44.2077 285.733 44.2077C287.348 44.2077 288.155 45.1037 288.155 46.8957V51.1377H287.021V46.9657C287.021 46.331 286.895 45.869 286.643 45.5797C286.401 45.281 286.009 45.1317 285.467 45.1317C284.842 45.1317 284.343 45.3277 283.969 45.7197C283.605 46.1024 283.423 46.6157 283.423 47.2597V51.1377H282.289ZM290.106 42.6397V41.3657H291.506V42.6397H290.106ZM290.246 51.1377V44.3337H291.38V51.1377H290.246ZM296.566 51.2637C295.493 51.2637 294.644 50.951 294.018 50.3257C293.393 49.691 293.08 48.8324 293.08 47.7497C293.08 47.0497 293.22 46.4337 293.5 45.9017C293.78 45.3604 294.163 44.945 294.648 44.6557C295.143 44.357 295.712 44.2077 296.356 44.2077C297.28 44.2077 298.004 44.5064 298.526 45.1037C299.049 45.6917 299.31 46.5037 299.31 47.5397V47.9737H294.186C294.224 48.7484 294.448 49.341 294.858 49.7517C295.269 50.153 295.838 50.3537 296.566 50.3537C296.977 50.3537 297.369 50.293 297.742 50.1717C298.116 50.041 298.47 49.831 298.806 49.5417L299.198 50.3397C298.89 50.629 298.498 50.8577 298.022 51.0257C297.546 51.1844 297.061 51.2637 296.566 51.2637ZM296.384 45.0477C295.74 45.0477 295.232 45.2484 294.858 45.6497C294.485 46.051 294.266 46.5784 294.2 47.2317H298.33C298.302 46.541 298.12 46.0044 297.784 45.6217C297.458 45.239 296.991 45.0477 296.384 45.0477ZM300.951 51.1377V44.3337H302.057V45.4957C302.281 45.0664 302.599 44.7444 303.009 44.5297C303.42 44.315 303.882 44.2077 304.395 44.2077C306.01 44.2077 306.817 45.1037 306.817 46.8957V51.1377H305.683V46.9657C305.683 46.331 305.557 45.869 305.305 45.5797C305.063 45.281 304.671 45.1317 304.129 45.1317C303.504 45.1317 303.005 45.3277 302.631 45.7197C302.267 46.1024 302.085 46.6157 302.085 47.2597V51.1377H300.951ZM311.638 51.2637C310.836 51.2637 310.234 51.0537 309.832 50.6337C309.431 50.2044 309.23 49.5884 309.23 48.7857V45.2157H307.9V44.3337H309.23V42.2477H310.364V44.3337H312.52V45.2157H310.364V48.6737C310.364 49.2057 310.476 49.6117 310.7 49.8917C310.924 50.1624 311.288 50.2977 311.792 50.2977C311.942 50.2977 312.091 50.279 312.24 50.2417C312.39 50.2044 312.525 50.167 312.646 50.1297L312.842 50.9977C312.721 51.063 312.544 51.1237 312.31 51.1797C312.077 51.2357 311.853 51.2637 311.638 51.2637ZM317.763 51.1377V45.2157H316.419V44.3337H317.763V44.0957C317.763 43.1904 317.987 42.5044 318.435 42.0377C318.892 41.571 319.592 41.3097 320.535 41.2537L321.081 41.2257L321.179 42.0937L320.535 42.1357C319.956 42.1824 319.536 42.355 319.275 42.6537C319.023 42.9524 318.897 43.3864 318.897 43.9557V44.3337H320.857V45.2157H318.897V51.1377H317.763ZM324.697 51.2637C324.035 51.2637 323.461 51.119 322.975 50.8297C322.49 50.5404 322.112 50.1344 321.841 49.6117C321.58 49.0797 321.449 48.4544 321.449 47.7357C321.449 47.017 321.58 46.3964 321.841 45.8737C322.112 45.3417 322.49 44.931 322.975 44.6417C323.461 44.3524 324.035 44.2077 324.697 44.2077C325.351 44.2077 325.92 44.3524 326.405 44.6417C326.9 44.931 327.278 45.3417 327.539 45.8737C327.81 46.3964 327.945 47.017 327.945 47.7357C327.945 48.4544 327.81 49.0797 327.539 49.6117C327.278 50.1344 326.9 50.5404 326.405 50.8297C325.92 51.119 325.351 51.2637 324.697 51.2637ZM324.697 50.3537C325.332 50.3537 325.841 50.1297 326.223 49.6817C326.606 49.2244 326.797 48.5757 326.797 47.7357C326.797 46.8864 326.606 46.2377 326.223 45.7897C325.841 45.3417 325.332 45.1177 324.697 45.1177C324.053 45.1177 323.54 45.3417 323.157 45.7897C322.784 46.2377 322.597 46.8864 322.597 47.7357C322.597 48.5757 322.784 49.2244 323.157 49.6817C323.54 50.1297 324.053 50.3537 324.697 50.3537ZM329.649 51.1377V44.3337H330.755V45.5517C331.119 44.7304 331.865 44.2777 332.995 44.1937L333.401 44.1517L333.485 45.1317L332.771 45.2157C332.127 45.2717 331.637 45.477 331.301 45.8317C330.965 46.177 330.797 46.653 330.797 47.2597V51.1377H329.649ZM339.046 53.6577L340.208 51.0257L337.338 44.3337H338.57L340.824 49.8497L343.092 44.3337H344.282L340.236 53.6577H339.046ZM348.186 51.2637C347.523 51.2637 346.949 51.119 346.464 50.8297C345.978 50.5404 345.6 50.1344 345.33 49.6117C345.068 49.0797 344.938 48.4544 344.938 47.7357C344.938 47.017 345.068 46.3964 345.33 45.8737C345.6 45.3417 345.978 44.931 346.464 44.6417C346.949 44.3524 347.523 44.2077 348.186 44.2077C348.839 44.2077 349.408 44.3524 349.894 44.6417C350.388 44.931 350.766 45.3417 351.028 45.8737C351.298 46.3964 351.434 47.017 351.434 47.7357C351.434 48.4544 351.298 49.0797 351.028 49.6117C350.766 50.1344 350.388 50.5404 349.894 50.8297C349.408 51.119 348.839 51.2637 348.186 51.2637ZM348.186 50.3537C348.82 50.3537 349.329 50.1297 349.712 49.6817C350.094 49.2244 350.286 48.5757 350.286 47.7357C350.286 46.8864 350.094 46.2377 349.712 45.7897C349.329 45.3417 348.82 45.1177 348.186 45.1177C347.542 45.1177 347.028 45.3417 346.646 45.7897C346.272 46.2377 346.086 46.8864 346.086 47.7357C346.086 48.5757 346.272 49.2244 346.646 49.6817C347.028 50.1297 347.542 50.3537 348.186 50.3537ZM355.545 51.2637C353.912 51.2637 353.095 50.363 353.095 48.5617V44.3337H354.229V48.5477C354.229 49.1544 354.35 49.6024 354.593 49.8917C354.845 50.181 355.237 50.3257 355.769 50.3257C356.348 50.3257 356.819 50.1344 357.183 49.7517C357.547 49.3597 357.729 48.8417 357.729 48.1977V44.3337H358.863V51.1377H357.757V49.9897C357.542 50.4004 357.239 50.7177 356.847 50.9417C356.464 51.1564 356.03 51.2637 355.545 51.2637Z" fill="#363636"/>
<g filter="url(#filter0_d_10642_4)">
<rect x="23" y="18.2163" width="41.7571" height="41.7571" rx="20.8785" fill="#E3B873"/>
<rect x="19" y="14.2163" width="49.7571" height="49.7571" rx="24.8785" stroke="white" stroke-width="8"/>
</g>
<path d="M40.5727 45.27C39.6007 45.27 38.7187 45.012 37.9267 44.496C37.1347 43.98 36.5047 43.23 36.0367 42.246C35.5807 41.25 35.3527 40.068 35.3527 38.7C35.3527 37.332 35.5807 36.156 36.0367 35.172C36.5047 34.176 37.1347 33.42 37.9267 32.904C38.7187 32.388 39.6007 32.13 40.5727 32.13C41.5447 32.13 42.4267 32.388 43.2187 32.904C44.0107 33.42 44.6347 34.176 45.0907 35.172C45.5587 36.156 45.7927 37.332 45.7927 38.7C45.7927 40.068 45.5587 41.25 45.0907 42.246C44.6347 43.23 44.0107 43.98 43.2187 44.496C42.4267 45.012 41.5447 45.27 40.5727 45.27ZM40.5727 44.91C41.9527 44.91 42.6427 42.84 42.6427 38.7C42.6427 34.56 41.9527 32.49 40.5727 32.49C39.1927 32.49 38.5027 34.56 38.5027 38.7C38.5027 42.84 39.1927 44.91 40.5727 44.91ZM47.8613 45V44.73L49.1213 44.37V34.488L47.2313 35.82L46.8713 35.37L50.1473 32.4H52.0913V44.37L53.3513 44.73V45H47.8613Z" fill="white"/>
<defs>
<filter id="filter0_d_10642_4" x="0" y="0.216309" width="87.7571" height="87.7568" filterUnits="userSpaceOnUse" color-interpolation-filters="sRGB">
<feFlood flood-opacity="0" result="BackgroundImageFix"/>
<feColorMatrix in="SourceAlpha" type="matrix" values="0 0 0 0 0 0 0 0 0 0 0 0 0 0 0 0 0 0 127 0" result="hardAlpha"/>
<feOffset dy="5"/>
<feGaussianBlur stdDeviation="7.5"/>
<feColorMatrix type="matrix" values="0 0 0 0 0.890196 0 0 0 0 0.721569 0 0 0 0 0.45098 0 0 0 0.15 0"/>
<feBlend mode="normal" in2="BackgroundImageFix" result="effect1_dropShadow_10642_4"/>
<feBlend mode="normal" in="SourceGraphic" in2="effect1_dropShadow_10642_4" result="shape"/>
</filter>
</defs>
</svg>
